/* XPM */
static char *_f2e9ad7b9e841428ab4d6d3cb107157HtRhlDEdGqDZYvPi[] = {
/* columns rows colors chars-per-pixel */
"64 64 154 2 ",
"   c None",
".  c #1E1E1E",
"X  c #201F1F",
"o  c #1E211F",
"O  c #22211F",
"+  c #1E2521",
"@  c #1F2B23",
"#  c #1F3326",
"$  c #1F3B29",
"%  c #242322",
"&  c #2A2521",
"*  c #2F2823",
"=  c #272928",
"-  c #2C2C2C",
";  c #342A25",
":  c #3C2F27",
">  c #203B29",
",  c #3E3027",
"<  c #323232",
"1  c gray24",
"2  c #433229",
"3  c #49362A",
"4  c #4D382B",
"5  c #543C2E",
"6  c #583E2E",
"7  c #1F442C",
"8  c #1F4A2E",
"9  c #15552A",
"0  c #165C2D",
"q  c #175F30",
"w  c #20442C",
"e  c #204A2F",
"r  c #204E30",
"t  c #205432",
"y  c #215B35",
"u  c #17612F",
"i  c #18612F",
"p  c #176130",
"a  c #186432",
"s  c #1A6C35",
"d  c #1B7137",
"f  c #1C7439",
"g  c #1E7E3F",
"h  c #206137",
"j  c #216438",
"k  c #216C3B",
"l  c #21733E",
"z  c #5B402F",
"x  c #5D4130",
"c  c #644532",
"v  c #684733",
"b  c #6B4934",
"n  c #734E36",
"m  c #775037",
"M  c #775038",
"N  c #7C5239",
"B  c #227B41",
"V  c #454545",
"C  c #4A4A4A",
"Z  c gray32",
"A  c gray36",
"S  c gray39",
"D  c #6D6D6D",
"F  c #747474",
"G  c #7B7B7B",
"H  c #83563B",
"J  c #86593C",
"K  c #8B5B3D",
"L  c #915E3F",
"P  c #93603F",
"I  c #956040",
"U  c #9D6542",
"Y  c #A16744",
"T  c #A56A45",
"R  c #AA6C46",
"E  c #B57349",
"W  c #BB764B",
"Q  c #BF784C",
"!  c #1E803F",
"~  c #1F8643",
"^  c #1E8140",
"/  c #1F8844",
"(  c #1F8844",
")  c #228042",
"_  c #228143",
"`  c #228243",
"'  c #238344",
"]  c #228244",
"[  c #228444",
"{  c #208744",
"}  c #228745",
"|  c #238745",
" . c #228444",
".. c #208844",
"X. c #228946",
"o. c #228B46",
"O. c #208C45",
"+. c #228C47",
"@. c #218F47",
"#. c #228B46",
"$. c #238D48",
"%. c #238E48",
"&. c #228F48",
"*. c #238E48",
"=. c #219047",
"-. c #219047",
";. c #239149",
":. c #229349",
">. c #22934A",
",. c #22944A",
"<. c #22954A",
"1. c #23954B",
"2. c #23964B",
"3. c #23974B",
"4. c #219449",
"5. c #23974C",
"6. c #22944A",
"7. c #23984B",
"8. c #23994B",
"9. c #22984C",
"0. c #23984C",
"q. c #23994C",
"w. c #23994C",
"e. c gray52",
"r. c gray53",
"t. c #838383",
"y. c #8B8B8B",
"u. c #8B8B8B",
"i. c #909090",
"p. c #939393",
"a. c #9D9D9D",
"s. c #A3A3A3",
"d. c #ACACAC",
"f. c #AAAAAA",
"g. c #B7B7B7",
"h. c #B3B3B3",
"j. c gray74",
"k. c gray75",
"l. c #BBBBBB",
"z. c gray77",
"x. c #CBCBCB",
"c. c #D2D2D2",
"v. c #D9D9D9",
"b. c #E1E1E1",
"n. c #E2E2E2",
"m. c gray92",
"M. c #ECECEC",
"N. c #EDEDED",
"B. c gray96",
"V. c #F5F5F5",
"C. c #FBFBFB",
"Z. c #FDFDFD",
"A. c white",
"S. c #FFFFFF",
/* pixels */
"                                                    ^ ^ ! ! ! ! g ! g ! g                                                       ",
"                                            ^ g g g g g g g g g g g g g g g g g ! g                                             ",
"                                        ! g g g g d s a 0 9 9 9 9 9 0 0 a s d g g g g !                                         ",
"                                  ^ g g g g s 0 9 u d g { -.:.<.<.:.O.~ g d 0 9 0 s g g g g                                     ",
"                                ! g g d 0 9 s ~ <.q.q.q.q.q.q.q.q.q.q.q.q.q.q.<.^ s 9 p f g g g                                 ",
"                            ! g g f 0 0 g <.q.q.q.q.q.q.q.q.q.q.q.q.q.q.q.q.q.q.q.q.<.g 0 0 f g g !                             ",
"                          ! g g p 0 ! 8.q.q.q.q.q.q.q.q.q.q.q.q.q.q.q.q.q.q.q.q.q.q.q.q.q.g 9 a g g !                           ",
"                      g g g s 9 d <.q.q.q.q.q.q.q.q.q.q.q.q.q.q.q.q.q.q.q.q.q.q.q.q.q.q.q.q.<.s 9 d g g ^                       ",
"                    ^ g g a 0 O.q.q.q.q.q.q.O.j w # @ > w y _ q.q.q.q.q.q.q.q.q.q.q.q.q.q.q.q.q.o.9 a g g g                     ",
"                  g g g 0 a <.q.q.q.q.q.<.t o . . . . . . . . @ j <.q.q.q.q.q.q.q.q.q.q.q.q.q.q.q.<.a 0 g g g                   ",
"                g g g 0 s 8.q.q.q.q.q.O.# . . # h l _ B k e @ . . # l t w # > w t B 5.q.q.q.q.q.q.q.q.s 0 g g !                 ",
"              g g g 0 d q.q.q.q.q.q.<.# . @ l q.q.q.q.q.q.q.<.k @ . . . . . . . . . + t O.q.q.q.q.q.q.q.s 0 g g !               ",
"              g g 0 s q.q.q.q.o.j w @ . @ o.q.q.q.q.q.q.q.q.q.q.B . . + $ r r $ + . . . + l q.q.q.q.q.q.q.s q g g               ",
"            g g a a 8.q.q.%.e o . . . . # y l 5.q.q.q.q.q.q.q.l + @ k 5.q.q.q.q.q.{ y @ . . k q.q.q.q.q.q.q.a a g !             ",
"          ! g d 0 <.q.<.l @ . . @ 7 y j k y r 7 B q.q.q.q.q.{ + # _ %.5.q.q.q.q.q.q.q.:.w . o B q.q.q.q.q.q.<.0 d g g           ",
"          g g 9 O.q.B @ . . . $ _ <.q.q.q.q.q.q.q.q.q.q.q.] > . . . . o # t l <.q.q.q.q.<.> . # 8.q.q.q.q.q.q./ 9 g g           ",
"        g g p d q.O.+ . @ e r r $ @ @ e k :.q.q.q.q.q.%.7 + t l %.<.8.%.B j e $ h :.q.q.q.o.+ . k q.q.q.q.q.q.q.s a g g         ",
"      ^ g f 0 <.q.j . # %._ { %.5.q.:.l t @ t %.q.q.%.# $ k l k B %.q.q.q.q.q.q.] l q.q.q.q.t . $ q.q.q.q.q.q.q.<.9 f g         ",
"      g g 0 ! q.q.t . + % - - = o # t l <.:.h @ l q.7 . o $ w w # + # t { q.q.q.q.q.q.q.q.q.{ . . { q.q.q.q.q.q.q.g 0 g g       ",
"      g d 0 8.q.%.+ . D N.A.A.A.b.j.y.V + e ] { # $ @ k :.q.q.q.q.8._ y # > B q.q.q.q.q.q.q.q.# . k q.q.q.q.q.q.q.<.9 f g       ",
"    g g 0 g q.q.y . C A.A.A.A.A.C.j.g.V.b.i.< w t # B j t t h l o.q.q.q.q.B r e o.q.q.q.q.q.q.t . $ B q.q.q.q.q.q.q.f a g g     ",
"    g g 9 <.q.q.$ . d.A.A.A.A.C.Z . 1 C m.A.V.y.% # - S r.r.D Z = @ t ] q.q.q.%.j ] q.q.q.q.q.j . . . e :.q.q.q.q.q.<.9 g g     ",
"  ^ g s s q.q.q.# . z.A.A.A.A.g.. . c.a.u.A.A.V.< F V.A.A.A.A.A.C.x.G - w _ q.q.q.q.q.q.q.q.q.B w t + . # o.q.q.q.q.q.a s g     ",
"  g g 0 ~ q.q.q.> . s.A.A.A.A.g.. . < = y.A.A.t.S A.A.A.A.A.A.N.g.z.V.V.i.= t <.q.q.q.q.q.q.q.%.h q.{ # . # :.q.q.q.q.! 0 g !   ",
"  g g 9 <.q.q.q.y . V V.A.A.A.V.V . . < b.A.A.- c.A.A.A.A.A.z.- . . 1 b.A.b.A @ B q.q.q.q.q.q.q.:.q.q.:.# . t q.q.q.q.:.9 g g   ",
"  g d u q.q.q.q.%.@ . C j.C.A.A.V.d.s.m.A.A.v.- A.A.A.A.A.A.< . % x.t.A A.A.A.f.- $ k 5.q.q.q.q.q.q.q.q.{ o . B q.q.q.q.0 f g   ",
"^ g a d q.q.q.q.q.w . # # % V D y.a.h.g.h.a.C V A.A.A.A.A.b.. . . h.D - A.A.A.A.N.s.C $ <.q.q.q.q.q.q.q.q.y . 7 q.q.q.q.s s g   ",
"^ g a g q.q.q.q.q.t . $ :.%.B j t e 7 $ $ w @ = N.A.A.A.A.C.= . . . . C A.A.A.A.A.A.A.- { q.q.q.q.q.q.q.q.:.+ o O.q.q.q.f a g g ",
"g g 0 { q.q.q.q.q.o.+ . + :.q.q.q.q.q.q.q.q.@ # D A.A.A.A.A.s.% . . = x.A.A.A.n.p.D 1 # <.q.q.q.q.q.q.q.q.q.e . y q.q.q.^ 0 g g ",
"g g 9 -.q.q.q.q.q.q.{ @ . y q.q.q.q.q.q.q.q.@ l # A v.A.A.A.A.x.y.i.b.A.A.z.S % w j B <.q.q.q.q.q.q.q.q.q.q.l . w q.q.q.o.0 g ! ",
"g g 9 :.q.q.q.q.q.q.o.@ . o y <.q.q.q.q.q.q.e t :.t % Z y.h.x.b.b.x.f.D < @ y %.q.q.q.q.q.q.q.q.q.q.q.q.q.q.%.. + q.q.q.O.0 g ! ",
"g g 9 <.q.q.q.q.q.q.7 . # _ w @ t k l B <.q.{ + B q.:.k t $ @ + + # w y _ q.q.q.q.q.q.q.q.q.q.q.q.q.q.q.q.q.q.@ . { q.q.:.9 g g ",
"g g 9 <.q.q.q.q.q.{ . o ] q.q.%.l j k { q.q.q.k + j 5.q.q.q.q.q.q.q.q.q.q.q.<.q.q.q.q.q.o.h e t l q.q.q.q.q.q.w . l q.q.:.9 g ! ",
"g g 9 :.q.q.q.q.q.j . > q.q.q.q.q.q.q.q.q.q.q.q.B # @ y B 5.q.q.q.q.o.l t y o.q.q.q.q.j + ; 5 3 X e q.q.q.q.q.r . j q.q.O.0 g g ",
"! g 9 O.q.q.q.q.q.t . t q.q.q.q.q.q.q.q.q.q.q.q.q.8.l e @ o @ # # + $ y O.q.q.q.q.q.t X m W Q Q U % j q.q.q.q.t . y q.q.o.0 g ! ",
"g g 0 / q.q.q.q.q.t . w o.q.q.q.q.q.q.q.q.q.q.q.q.q.q.q.q.O.{ _ o.<.q.q.q.q.q.q.:.w % K Q Q Q Q Q v # q.q.q.q.y . y q.q.^ q g g ",
"g g a g q.q.q.q.{ + . X . e %.q.q.q.q.q.q.q.q.q.q.q.q.q.q.q.q.q.q.q.q.q.q.q.<.j @ ; Y Q Q W R Q Q K o q.q.q.q.j . t q.q.f a g ^ ",
"  g s d q.q.q.q.w O P Q L ; o t B 8.q.q.q.q.q.q.q.q.q.q.q.q.q.q.q.q.q.q.{ y + % b E Q Q E 5 4 Q Q N + q.q.q.q.y . y q.q.s s g   ",
"  g d 0 q.q.q.q.@ 4 Q Q Q W H 2 . @ r k _ 5.q.q.q.q.q.q.q.q.q.q.o.k t # . ; n E Q Q Q R : 5 E Q W : $ q.q.q.q.t . j q.q.0 f g   ",
"  g g 9 <.q.q.q.@ ; E Q Q Q Q Q R N 2 % . o # > 7 8 r e w $ # o . % 2 b U Q Q Q Q W N & n Q Q Q v . k q.q.q.q.$ . l q.:.9 g !   ",
"  g g 0 ^ q.q.q.y . & N E Q Q Q Q Q Q Q R K n v x 5 5 5 x c M K Y W Q Q Q Q Q Q L , 2 Y Q Q Q H . w q.q.q.q.<.+ . :.q.g i g !   ",
"  g g s s q.q.q.j . H 5 & c I W Q Q Q Q Q Q Q Q Q Q Q Q Q Q Q Q Q Q Q Q Q E J 2 ; H W Q Q Q n . # :.q.q.q.q.k . $ q.q.a s g     ",
"    g g 9 <.q.q.l . H Q R v ; * v L E Q Q Q Q Q Q Q Q Q Q Q Q Q Q Q E K z & 2 J W Q Q Q E 5 . $ %.q.q.q.q.q.$ . k q.:.9 g g     ",
"    g g p g q.q.<.@ O n E Q Q Y n 2 % ; 5 b N K U U T Y U L H n 5 ; O 3 n R Q Q Q Q W N & . r <.q.q.q.q.q.l . @ :.q.f a g g     ",
"      g f 9 <.q.q.{ # . ; N E Q Q Q W T K b 6 3 , ; ; ; : 2 5 v N U E Q Q Q Q Q E N ; . @ k q.q.q.q.q.q.%.@ . k q.<.9 f g       ",
"      ! g 0 g q.q.q.5.j + . & x I E Q Q Q Q Q Q Q Q Q Q Q Q Q Q Q Q Q Q Q E K z % . + y <.q.q.q.q.q.q.:.$ . $ 8.q.g u g !       ",
"        g f 9 <.q.q.q.q.t . . . . % 4 v H Y E Q Q Q Q Q Q Q Q Q E Y H c 2 O . . # k <.q.q.q.q.q.q.q.:.$ . @ %.q.:.9 f g         ",
"        g g a d q.q.q.q.:.@ . $ h > o . . . . & ; : 2 3 2 , ; % . . . . + $ j o.q.q.q.q.q.q.q.q.q.{ # . @ { q.q.s a g !         ",
"          g g 9 o.q.q.q.q.B o . t 8.<._ k t 7 > @ + + . + @ # $ 8 y k { <.q.q.q.q.q.q.q.q.q.q.<.h + . # { q.q.~ 9 g g           ",
"          ! g d 9 :.q.q.q.q.k o . 7 %.q.q.q.q.q.q.q.q.q.q.q.q.q.q.q.q.q.q.q.q.q.q.q.q.q.q.5.k @ . . 8 :.q.q.:.9 d g !           ",
"            ! g a a q.q.q.q.q.l + . + h :.q.q.q.q.q.q.q.q.q.q.q.q.q.q.q.q.q.q.q.q.q.q.o.y @ . . # l q.q.q.<.p s g !             ",
"              g g q s q.q.q.q.q.o.> . . @ t B <.q.q.q.q.q.q.q.q.q.q.q.q.q.q.q.<.B h $ . . . @ k <.q.q.q.8.a p g g               ",
"              ^ g g 0 s q.q.q.q.q.8.k # . . . + 7 y k B ] o.%.%.o.{ B k h r $ + . . . o 7 l <.q.q.q.q.8.s 0 g g                 ",
"                ^ g g 0 s q.q.q.q.q.q.q.B t @ . . . . . . . . . . . . . . . . . @ e k :.q.q.q.q.q.q.<.a 0 g g ^                 ",
"                  g g g q a :.q.q.q.q.q.q.q.8._ k t w # @ @ o + + @ # 7 r h l o.q.q.q.q.q.q.q.q.q.:.p p g g ^                   ",
"                    g g g a 0 / q.q.q.q.q.q.q.q.q.q.q.q.q.q.q.q.q.q.q.q.q.q.q.q.q.q.q.q.q.q.q.q.~ 9 s g g g                     ",
"                      ! g g d 9 s <.q.q.q.q.q.q.q.q.q.q.q.q.q.q.q.q.q.q.q.q.q.q.q.q.q.q.q.q.:.s 9 d g !                         ",
"                          ! g g a 9 g <.q.q.q.q.q.q.q.q.q.q.q.q.q.q.q.q.q.q.q.q.q.q.q.q.<.g 9 a g g g                           ",
"                            g g g f 0 9 f :.q.q.q.q.q.q.q.q.q.q.q.q.q.q.q.q.q.q.q.q.:.f 9 i f g g !                             ",
"                                g g g f a 9 a ! :.q.q.q.q.q.q.q.q.q.q.q.q.q.q.:.g a 9 a f g g g                                 ",
"                                    ! g g g s 0 9 0 s f ^ o.O.:.:.O.o.^ f s 0 9 i s g g g !                                     ",
"                                        g g g g g f s a 0 0 0 9 9 0 0 0 a s f g g g g !                                         ",
"                                              g ! g g g g g g g g g g g g g g ! g                                               ",
"                                                      g ! ! g ! ! g g ! g                                                       "
};
