<?xml version="1.0" encoding="UTF-8"?>
<svg xmlns="http://www.w3.org/2000/svg" xmlns:xlink="http://www.w3.org/1999/xlink" width="16px" height="16px" viewBox="0 0 16 16" version="1.1">
<g id="surface1">
<path style=" stroke:none;fill-rule:nonzero;fill:rgb(12.54902%,50.980395%,25.490198%);fill-opacity:1;" d="M 15.984375 7.992188 C 15.984375 3.578125 12.40625 0 7.992188 0 C 3.578125 0 0 3.578125 0 7.992188 C 0 12.40625 3.578125 15.984375 7.992188 15.984375 C 12.40625 15.984375 15.984375 12.40625 15.984375 7.992188 Z M 15.984375 7.992188 "/>
<path style=" stroke:none;fill-rule:nonzero;fill:rgb(14.901961%,60.784316%,30.19608%);fill-opacity:1;" d="M 15.34375 7.992188 C 15.34375 3.933594 12.054688 0.640625 7.992188 0.640625 C 3.933594 0.640625 0.640625 3.933594 0.640625 7.992188 C 0.640625 12.054688 3.933594 15.34375 7.992188 15.34375 C 12.054688 15.34375 15.34375 12.054688 15.34375 7.992188 Z M 15.34375 7.992188 "/>
<path style=" stroke:none;fill-rule:nonzero;fill:rgb(8.627451%,32.549021%,16.470589%);fill-opacity:1;" d="M 0.5 7.992188 C 0.5 3.855469 3.855469 0.5 7.992188 0.5 C 12.132812 0.5 15.488281 3.855469 15.488281 7.992188 C 15.488281 12.132812 12.132812 15.488281 7.992188 15.488281 C 3.855469 15.488281 0.5 12.132812 0.5 7.992188 Z M 2.875 2.875 C 1.5625 4.183594 0.753906 5.992188 0.753906 7.992188 C 0.753906 9.992188 1.5625 11.800781 2.875 13.113281 C 4.183594 14.421875 5.992188 15.230469 7.992188 15.230469 C 9.992188 15.230469 11.800781 14.421875 13.113281 13.113281 C 14.421875 11.800781 15.230469 9.992188 15.230469 7.992188 C 15.230469 5.992188 14.421875 4.183594 13.113281 2.875 C 11.800781 1.5625 9.992188 0.753906 7.992188 0.753906 C 5.992188 0.753906 4.183594 1.5625 2.875 2.875 Z M 2.875 2.875 "/>
<path style=" stroke:none;fill-rule:nonzero;fill:rgb(12.941177%,12.941177%,12.941177%);fill-opacity:1;" d="M 14.390625 9.125 C 14.390625 7.539062 13.996094 6.519531 13.496094 5.894531 C 13.132812 5.445312 12.734375 5.207031 12.40625 5.109375 C 12.378906 4.957031 12.339844 4.789062 12.285156 4.613281 C 12.085938 3.964844 11.664062 3.164062 10.769531 2.804688 C 10.3125 2.625 9.882812 2.539062 9.484375 2.539062 C 9.480469 2.539062 9.480469 2.539062 9.476562 2.539062 C 9.148438 2.539062 8.847656 2.59375 8.578125 2.695312 C 8.394531 2.535156 8.175781 2.394531 7.921875 2.292969 C 7.46875 2.113281 7.039062 2.03125 6.640625 2.027344 C 6.636719 2.027344 6.632812 2.027344 6.628906 2.027344 C 5.730469 2.027344 5.027344 2.460938 4.648438 3.042969 C 4.613281 3.042969 4.578125 3.046875 4.542969 3.050781 C 4.070312 3.113281 3.574219 3.285156 3.1875 3.652344 C 3.179688 3.65625 3.171875 3.664062 3.164062 3.671875 C 3.023438 3.699219 2.886719 3.746094 2.765625 3.824219 C 2.519531 3.96875 2.371094 4.242188 2.375 4.523438 C 2.375 4.523438 2.375 4.527344 2.375 4.539062 C 2.375 4.578125 2.378906 4.617188 2.382812 4.65625 C 2.371094 4.671875 2.359375 4.683594 2.347656 4.695312 C 2.179688 4.917969 2.074219 5.164062 2.042969 5.40625 C 2.035156 5.464844 2.027344 5.53125 2.027344 5.601562 C 2.027344 5.816406 2.070312 6.097656 2.238281 6.367188 C 2.269531 6.414062 2.300781 6.460938 2.339844 6.503906 C 2.328125 6.554688 2.320312 6.601562 2.320312 6.652344 C 2.320312 6.65625 2.320312 6.667969 2.320312 6.679688 C 2.332031 6.980469 2.511719 7.246094 2.777344 7.386719 C 2.792969 7.429688 2.8125 7.46875 2.832031 7.503906 C 2.460938 7.902344 2.347656 8.394531 2.347656 8.761719 C 2.347656 8.765625 2.347656 8.769531 2.347656 8.773438 C 2.351562 8.847656 2.355469 8.917969 2.363281 8.984375 C 2.222656 9.089844 2.113281 9.238281 2.054688 9.414062 C 2.023438 9.503906 2.007812 9.601562 2.007812 9.699219 C 2.007812 9.878906 2.0625 10.054688 2.160156 10.207031 C 2.144531 10.273438 2.136719 10.339844 2.136719 10.410156 C 2.136719 10.714844 2.292969 11.015625 2.570312 11.183594 C 2.714844 11.277344 2.863281 11.363281 3.019531 11.441406 C 3.484375 12.539062 4.851562 13.742188 7.65625 13.742188 C 7.664062 13.742188 7.671875 13.742188 7.683594 13.742188 L 7.699219 13.742188 C 8.152344 13.742188 8.640625 13.714844 9.175781 13.648438 C 9.96875 13.550781 11.226562 13.28125 12.332031 12.609375 C 13.425781 11.953125 14.382812 10.832031 14.390625 9.164062 Z M 14.390625 9.125 "/>
<path style=" stroke:none;fill-rule:nonzero;fill:rgb(100%,100%,100%);fill-opacity:1;" d="M 5.691406 6.449219 C 5.710938 6.292969 5.761719 5.96875 5.988281 5.664062 C 6.007812 5.636719 6.03125 5.605469 6.054688 5.578125 C 6.058594 5.535156 6.050781 5.5 6.015625 5.464844 C 5.140625 4.863281 3.835938 4.667969 3.246094 4.726562 C 2.847656 4.765625 2.597656 5.203125 2.566406 5.46875 C 2.53125 5.757812 2.589844 6.304688 3.246094 6.472656 C 4.027344 6.675781 5.417969 6.761719 5.613281 6.566406 C 5.640625 6.535156 5.667969 6.507812 5.6875 6.484375 C 5.691406 6.472656 5.6875 6.460938 5.691406 6.449219 Z M 5.691406 6.449219 "/>
<path style=" stroke:none;fill-rule:nonzero;fill:rgb(12.941177%,12.941177%,12.941177%);fill-opacity:1;" d="M 5.15625 5.761719 C 5.15625 6.097656 4.871094 6.371094 4.523438 6.371094 C 4.175781 6.371094 3.894531 6.097656 3.894531 5.761719 C 3.894531 5.425781 4.175781 5.152344 4.523438 5.152344 C 4.871094 5.152344 5.15625 5.425781 5.15625 5.761719 "/>
<path style=" stroke:none;fill-rule:nonzero;fill:rgb(100%,100%,100%);fill-opacity:1;" d="M 4.914062 5.621094 C 4.914062 5.726562 4.828125 5.816406 4.71875 5.816406 C 4.613281 5.816406 4.527344 5.726562 4.527344 5.621094 C 4.527344 5.511719 4.613281 5.425781 4.71875 5.425781 C 4.828125 5.425781 4.914062 5.511719 4.914062 5.621094 "/>
<path style=" stroke:none;fill-rule:nonzero;fill:rgb(100%,100%,100%);fill-opacity:1;" d="M 10.785156 6.902344 C 10.785156 6.660156 10.390625 6.644531 10.132812 6.515625 C 9.707031 6.304688 8.980469 5.492188 7.410156 5.382812 C 6.164062 5.296875 6 6.1875 5.960938 6.484375 C 5.902344 6.902344 6.15625 7.621094 7.785156 7.714844 C 9.03125 7.785156 9.761719 7.195312 10.164062 7.117188 C 10.566406 7.035156 10.785156 7.066406 10.785156 6.902344 "/>
<path style=" stroke:none;fill-rule:nonzero;fill:rgb(12.941177%,12.941177%,12.941177%);fill-opacity:1;" d="M 8.996094 6.652344 C 8.996094 7.066406 8.652344 7.398438 8.226562 7.398438 C 7.800781 7.398438 7.453125 7.066406 7.453125 6.652344 C 7.453125 6.238281 7.800781 5.902344 8.226562 5.902344 C 8.652344 5.902344 8.996094 6.238281 8.996094 6.652344 "/>
<path style=" stroke:none;fill-rule:nonzero;fill:rgb(100%,100%,100%);fill-opacity:1;" d="M 8.675781 6.484375 C 8.675781 6.605469 8.574219 6.707031 8.453125 6.707031 C 8.332031 6.707031 8.230469 6.605469 8.230469 6.484375 C 8.230469 6.359375 8.332031 6.261719 8.453125 6.261719 C 8.574219 6.261719 8.675781 6.359375 8.675781 6.484375 "/>
<path style=" stroke:none;fill-rule:nonzero;fill:rgb(14.901961%,60.784316%,30.19608%);fill-opacity:1;" d="M 3.21875 4.457031 C 3.296875 4.449219 3.378906 4.445312 3.464844 4.445312 C 4.152344 4.449219 5.25 4.652344 6.09375 5.195312 C 6.113281 5.160156 6.128906 5.128906 6.148438 5.09375 C 6.164062 5.070312 6.183594 5.050781 6.199219 5.027344 C 5.585938 4.433594 4.867188 4.253906 3.914062 4.160156 C 3.804688 4.148438 3.707031 4.140625 3.617188 4.140625 C 3.070312 4.152344 2.902344 4.300781 2.902344 4.535156 C 2.902344 4.539062 2.902344 4.546875 2.902344 4.550781 C 2.996094 4.503906 3.101562 4.46875 3.21875 4.457031 Z M 12.164062 5.570312 C 12.132812 5.964844 12.050781 6.113281 12.027344 6.109375 C 12 6.109375 11.988281 6 11.964844 5.8125 C 11.941406 5.621094 11.910156 5.347656 11.835938 5.023438 C 11.757812 4.699219 11.632812 4.316406 11.390625 3.972656 C 11.265625 3.800781 11.113281 3.644531 10.925781 3.523438 C 10.878906 3.496094 10.832031 3.464844 10.777344 3.441406 L 10.703125 3.402344 L 10.621094 3.371094 C 10.570312 3.347656 10.507812 3.328125 10.449219 3.308594 C 10.390625 3.292969 10.332031 3.269531 10.269531 3.253906 C 10.050781 3.195312 9.824219 3.160156 9.597656 3.144531 C 9.375 3.136719 9.148438 3.160156 8.9375 3.214844 C 8.609375 3.300781 8.308594 3.484375 8.097656 3.742188 C 8.183594 3.726562 8.273438 3.730469 8.355469 3.722656 C 8.398438 3.722656 8.445312 3.714844 8.488281 3.71875 C 8.53125 3.71875 8.570312 3.722656 8.613281 3.726562 C 8.699219 3.730469 8.78125 3.734375 8.859375 3.746094 C 8.941406 3.757812 9.019531 3.773438 9.09375 3.785156 C 9.132812 3.792969 9.167969 3.796875 9.207031 3.804688 C 9.242188 3.8125 9.277344 3.824219 9.3125 3.832031 C 9.382812 3.851562 9.449219 3.871094 9.515625 3.890625 C 9.648438 3.921875 9.761719 3.976562 9.867188 4.015625 C 10.085938 4.09375 10.246094 4.1875 10.355469 4.25 C 10.464844 4.316406 10.523438 4.359375 10.515625 4.375 C 10.507812 4.394531 10.433594 4.382812 10.3125 4.351562 C 10.191406 4.320312 10.023438 4.253906 9.804688 4.203125 C 9.382812 4.085938 8.777344 3.945312 8.125 4.019531 C 7.828125 4.050781 7.542969 4.148438 7.292969 4.296875 C 7.230469 4.335938 7.171875 4.378906 7.113281 4.421875 L 7.035156 4.496094 C 7.316406 4.414062 7.609375 4.390625 7.894531 4.40625 C 8.289062 4.433594 8.65625 4.527344 8.96875 4.640625 C 9.285156 4.753906 9.554688 4.890625 9.777344 5.011719 C 10.214844 5.257812 10.457031 5.457031 10.4375 5.484375 C 10.417969 5.519531 10.144531 5.375 9.695312 5.179688 C 9.46875 5.078125 9.199219 4.96875 8.890625 4.871094 C 8.585938 4.773438 8.242188 4.695312 7.878906 4.667969 C 7.550781 4.652344 7.214844 4.683594 6.917969 4.8125 C 6.769531 4.875 6.628906 4.957031 6.515625 5.0625 C 6.460938 5.117188 6.410156 5.175781 6.371094 5.238281 C 6.34375 5.277344 6.324219 5.316406 6.3125 5.355469 C 6.542969 5.203125 6.855469 5.101562 7.242188 5.105469 C 7.300781 5.105469 7.363281 5.109375 7.425781 5.113281 C 8.257812 5.171875 8.878906 5.417969 9.335938 5.675781 C 9.785156 5.933594 10.101562 6.203125 10.253906 6.273438 C 10.382812 6.355469 10.652344 6.355469 10.902344 6.558594 C 10.988281 6.628906 11.0625 6.765625 11.058594 6.902344 C 11.0625 7.003906 11.003906 7.140625 10.914062 7.207031 C 10.828125 7.273438 10.753906 7.289062 10.683594 7.304688 C 10.546875 7.335938 10.402344 7.34375 10.214844 7.382812 C 10.109375 7.394531 9.828125 7.546875 9.457031 7.695312 C 9.085938 7.847656 8.597656 7.992188 8 7.992188 C 7.996094 7.992188 7.996094 7.992188 7.996094 7.992188 C 7.921875 7.992188 7.847656 7.988281 7.769531 7.984375 C 6.984375 7.9375 6.46875 7.753906 6.136719 7.488281 C 5.980469 7.363281 5.871094 7.222656 5.800781 7.078125 C 5.78125 7.160156 5.78125 7.25 5.792969 7.335938 C 5.816406 7.496094 5.882812 7.65625 5.980469 7.792969 C 6.078125 7.929688 6.210938 8.042969 6.355469 8.132812 C 6.390625 8.160156 6.433594 8.175781 6.46875 8.199219 L 6.527344 8.230469 L 6.714844 8.3125 C 6.757812 8.328125 6.800781 8.34375 6.839844 8.359375 C 6.933594 8.394531 7.027344 8.417969 7.121094 8.449219 C 7.214844 8.46875 7.304688 8.496094 7.394531 8.507812 C 7.578125 8.539062 7.757812 8.550781 7.925781 8.550781 C 8.269531 8.546875 8.578125 8.492188 8.835938 8.433594 C 9.347656 8.304688 9.660156 8.183594 9.679688 8.222656 C 9.691406 8.253906 9.410156 8.441406 8.890625 8.621094 C 8.628906 8.710938 8.304688 8.789062 7.933594 8.808594 C 7.75 8.8125 7.550781 8.808594 7.351562 8.777344 C 7.25 8.765625 7.152344 8.738281 7.050781 8.71875 C 6.949219 8.6875 6.847656 8.660156 6.746094 8.621094 C 6.699219 8.605469 6.65625 8.589844 6.609375 8.570312 L 6.476562 8.511719 L 6.40625 8.480469 L 6.339844 8.445312 C 6.296875 8.421875 6.25 8.402344 6.207031 8.371094 C 6.035156 8.265625 5.878906 8.125 5.753906 7.957031 C 5.632812 7.789062 5.546875 7.589844 5.515625 7.375 C 5.5 7.269531 5.5 7.160156 5.519531 7.050781 C 5.527344 6.996094 5.542969 6.9375 5.566406 6.882812 C 5.515625 6.894531 5.46875 6.90625 5.414062 6.917969 C 5.273438 6.9375 5.113281 6.945312 4.9375 6.945312 C 4.390625 6.945312 3.683594 6.867188 3.179688 6.734375 C 3.070312 6.710938 2.980469 6.671875 2.894531 6.628906 C 2.824219 6.730469 2.910156 6.90625 3.054688 6.976562 C 3.101562 7.003906 3.160156 7.011719 3.207031 7.039062 C 3.246094 7.058594 3.238281 7.074219 3.265625 7.15625 C 3.28125 7.21875 3.308594 7.277344 3.335938 7.332031 C 3.351562 7.363281 3.371094 7.394531 3.390625 7.421875 C 3.429688 7.472656 3.46875 7.519531 3.519531 7.558594 C 3.585938 7.613281 3.664062 7.65625 3.738281 7.695312 C 3.820312 7.738281 3.898438 7.777344 3.984375 7.8125 C 4.03125 7.832031 4.078125 7.847656 4.128906 7.859375 C 4.203125 7.882812 4.28125 7.898438 4.359375 7.90625 C 4.480469 7.921875 4.601562 7.925781 4.722656 7.925781 C 4.804688 7.925781 4.886719 7.921875 4.96875 7.929688 C 5.003906 7.929688 5.039062 7.9375 5.066406 7.953125 C 5.066406 7.953125 5.074219 7.957031 5.074219 7.957031 C 5.128906 7.96875 4.238281 8.417969 3.335938 7.746094 C 2.984375 8.046875 2.875 8.453125 2.875 8.765625 C 2.875 8.816406 2.878906 8.867188 2.882812 8.914062 C 3.023438 8.917969 3.167969 8.957031 3.292969 9.042969 C 4.023438 9.539062 5.304688 9.855469 6.601562 9.851562 C 6.609375 9.851562 6.613281 9.851562 6.621094 9.851562 C 6.628906 9.851562 6.628906 9.851562 6.628906 9.851562 C 7.554688 9.851562 8.496094 9.703125 9.265625 9.417969 C 9.714844 9.253906 10.160156 9.03125 10.488281 8.734375 C 10.617188 8.621094 10.75 8.476562 10.925781 8.347656 C 11.097656 8.214844 11.328125 8.101562 11.605469 8.078125 C 11.640625 8.078125 11.675781 8.074219 11.707031 8.074219 C 11.976562 8.074219 12.21875 8.171875 12.390625 8.332031 C 12.566406 8.492188 12.675781 8.703125 12.726562 8.921875 L 12.726562 8.925781 C 12.746094 9.003906 12.75 9.085938 12.75 9.164062 C 12.75 9.175781 12.75 9.191406 12.75 9.203125 C 12.75 9.226562 12.75 9.246094 12.75 9.265625 C 12.75 9.515625 12.683594 9.753906 12.550781 9.957031 C 11.988281 10.804688 11.089844 11.359375 10.09375 11.71875 C 9.089844 12.078125 7.957031 12.246094 6.839844 12.246094 C 5.785156 12.242188 4.742188 12.097656 3.820312 11.777344 C 4.386719 12.519531 5.546875 13.226562 7.714844 13.230469 C 8.144531 13.230469 8.613281 13.203125 9.128906 13.140625 C 9.871094 13.050781 11.074219 12.785156 12.082031 12.171875 C 13.089844 11.554688 13.894531 10.609375 13.894531 9.128906 C 13.894531 6.324219 12.617188 5.65625 12.164062 5.570312 Z M 6.351562 4.859375 C 6.402344 4.816406 6.457031 4.773438 6.511719 4.738281 C 6.515625 4.726562 6.519531 4.710938 6.523438 4.703125 C 6.546875 4.664062 6.566406 4.621094 6.589844 4.585938 L 6.667969 4.480469 C 6.695312 4.445312 6.722656 4.414062 6.753906 4.382812 L 6.796875 4.335938 L 6.9375 4.207031 C 7.007812 4.15625 7.074219 4.105469 7.144531 4.058594 C 7.285156 3.976562 7.433594 3.910156 7.585938 3.855469 C 7.609375 3.800781 7.644531 3.742188 7.652344 3.726562 C 7.777344 3.523438 7.941406 3.34375 8.128906 3.203125 C 8.175781 3.164062 8.226562 3.132812 8.277344 3.101562 C 8.128906 2.96875 7.953125 2.851562 7.75 2.769531 C 7.34375 2.609375 6.972656 2.539062 6.648438 2.539062 C 5.917969 2.542969 5.386719 2.878906 5.097656 3.3125 C 5.996094 3.460938 6.199219 3.683594 6.183594 3.71875 C 6.167969 3.757812 5.988281 3.710938 5.707031 3.660156 C 5.425781 3.609375 5.03125 3.5625 4.609375 3.613281 C 4.304688 3.652344 4.003906 3.753906 3.757812 3.917969 C 3.816406 3.921875 3.875 3.925781 3.933594 3.933594 C 4.902344 4.027344 5.691406 4.222656 6.351562 4.859375 Z M 6.351562 4.859375 "/>
<path style=" stroke:none;fill-rule:nonzero;fill:rgb(75.294119%,47.843137%,30.588236%);fill-opacity:1;" d="M 12.410156 8.996094 C 12.332031 8.644531 12.054688 8.367188 11.632812 8.402344 C 11.214844 8.441406 10.988281 8.71875 10.707031 8.976562 C 10.332031 9.316406 9.847656 9.546875 9.375 9.722656 C 8.5625 10.023438 7.585938 10.175781 6.625 10.175781 C 5.265625 10.179688 3.933594 9.863281 3.113281 9.3125 C 2.902344 9.171875 2.621094 9.230469 2.484375 9.4375 C 2.382812 9.585938 2.386719 9.769531 2.46875 9.914062 C 3.304688 10.460938 4.925781 10.964844 6.671875 10.960938 C 8.351562 10.960938 10.136719 10.507812 11.5 9.222656 C 11.550781 9.175781 11.632812 9.175781 11.683594 9.230469 C 11.730469 9.28125 11.730469 9.363281 11.675781 9.414062 C 10.253906 10.753906 8.394531 11.222656 6.675781 11.222656 C 6.675781 11.222656 6.671875 11.222656 6.671875 11.222656 C 5.023438 11.21875 3.5 10.796875 2.5625 10.273438 C 2.496094 10.464844 2.5625 10.6875 2.742188 10.804688 C 3.804688 11.5 5.308594 11.816406 6.839844 11.820312 C 7.925781 11.820312 9.023438 11.65625 9.984375 11.3125 C 10.941406 10.964844 11.773438 10.441406 12.28125 9.671875 C 12.398438 9.496094 12.460938 9.21875 12.410156 8.996094 Z M 12.410156 8.996094 "/>
</g>
</svg>
