<?xml version="1.0" encoding="UTF-8"?>
<svg xmlns="http://www.w3.org/2000/svg" xmlns:xlink="http://www.w3.org/1999/xlink" width="32px" height="32px" viewBox="0 0 32 32" version="1.1">
<g id="surface1">
<path style=" stroke:none;fill-rule:nonzero;fill:rgb(12.54902%,50.980395%,25.490198%);fill-opacity:1;" d="M 31.972656 15.984375 C 31.972656 7.15625 24.816406 0 15.984375 0 C 7.15625 0 0 7.15625 0 15.984375 C 0 24.816406 7.15625 31.972656 15.984375 31.972656 C 24.816406 31.972656 31.972656 24.816406 31.972656 15.984375 Z M 31.972656 15.984375 "/>
<path style=" stroke:none;fill-rule:nonzero;fill:rgb(14.901961%,60.784316%,30.19608%);fill-opacity:1;" d="M 30.691406 15.984375 C 30.691406 7.863281 24.105469 1.28125 15.984375 1.28125 C 7.863281 1.28125 1.28125 7.863281 1.28125 15.984375 C 1.28125 24.105469 7.863281 30.691406 15.984375 30.691406 C 24.105469 30.691406 30.691406 24.105469 30.691406 15.984375 Z M 30.691406 15.984375 "/>
<path style=" stroke:none;fill-rule:nonzero;fill:rgb(8.627451%,32.549021%,16.470589%);fill-opacity:1;" d="M 1 15.984375 C 1 7.707031 7.707031 0.996094 15.984375 0.996094 C 24.265625 0.996094 30.972656 7.707031 30.972656 15.984375 C 30.972656 24.261719 24.265625 30.972656 15.984375 30.972656 C 7.707031 30.972656 1 24.261719 1 15.984375 Z M 5.75 5.75 C 3.128906 8.367188 1.507812 11.988281 1.507812 15.984375 C 1.507812 19.984375 3.128906 23.601562 5.75 26.222656 C 8.371094 28.84375 11.988281 30.464844 15.984375 30.464844 C 19.984375 30.464844 23.601562 28.84375 26.222656 26.222656 C 28.84375 23.601562 30.464844 19.984375 30.464844 15.984375 C 30.464844 11.988281 28.84375 8.367188 26.222656 5.75 C 23.601562 3.128906 19.984375 1.507812 15.984375 1.507812 C 11.988281 1.507812 8.371094 3.128906 5.75 5.75 Z M 5.75 5.75 "/>
<path style=" stroke:none;fill-rule:nonzero;fill:rgb(12.941177%,12.941177%,12.941177%);fill-opacity:1;" d="M 28.78125 18.253906 C 28.785156 15.074219 27.992188 13.035156 26.992188 11.789062 C 26.265625 10.890625 25.472656 10.417969 24.816406 10.21875 C 24.757812 9.914062 24.679688 9.578125 24.574219 9.230469 C 24.171875 7.929688 23.328125 6.332031 21.535156 5.609375 C 20.625 5.246094 19.765625 5.078125 18.96875 5.078125 C 18.964844 5.078125 18.957031 5.078125 18.949219 5.078125 C 18.296875 5.078125 17.695312 5.191406 17.15625 5.390625 C 16.785156 5.070312 16.351562 4.789062 15.84375 4.589844 C 14.933594 4.226562 14.074219 4.058594 13.28125 4.058594 C 13.273438 4.058594 13.265625 4.058594 13.257812 4.058594 C 11.460938 4.054688 10.054688 4.921875 9.300781 6.085938 C 9.230469 6.089844 9.15625 6.097656 9.082031 6.105469 C 8.140625 6.226562 7.152344 6.570312 6.371094 7.304688 C 6.355469 7.316406 6.34375 7.328125 6.328125 7.34375 C 6.042969 7.402344 5.777344 7.496094 5.535156 7.644531 C 5.039062 7.941406 4.742188 8.484375 4.746094 9.050781 C 4.746094 9.050781 4.746094 9.058594 4.746094 9.078125 C 4.75 9.15625 4.753906 9.238281 4.761719 9.3125 C 4.742188 9.339844 4.71875 9.367188 4.699219 9.394531 C 4.355469 9.835938 4.144531 10.324219 4.082031 10.808594 C 4.066406 10.933594 4.058594 11.0625 4.058594 11.203125 C 4.058594 11.632812 4.140625 12.191406 4.476562 12.730469 C 4.535156 12.828125 4.601562 12.921875 4.675781 13.011719 C 4.65625 13.105469 4.644531 13.207031 4.640625 13.304688 C 4.640625 13.3125 4.640625 13.332031 4.644531 13.363281 C 4.664062 13.964844 5.023438 14.488281 5.554688 14.777344 C 5.585938 14.855469 5.625 14.933594 5.660156 15.011719 C 4.921875 15.808594 4.695312 16.785156 4.695312 17.523438 C 4.695312 17.53125 4.695312 17.535156 4.695312 17.542969 C 4.699219 17.691406 4.707031 17.832031 4.722656 17.96875 C 4.441406 18.179688 4.222656 18.472656 4.109375 18.824219 C 4.046875 19.011719 4.015625 19.203125 4.015625 19.398438 C 4.015625 19.757812 4.121094 20.113281 4.324219 20.414062 C 4.292969 20.546875 4.277344 20.683594 4.277344 20.816406 C 4.277344 21.425781 4.585938 22.03125 5.140625 22.363281 C 5.429688 22.550781 5.726562 22.722656 6.039062 22.882812 C 6.964844 25.082031 9.707031 27.488281 15.308594 27.488281 C 15.328125 27.488281 15.347656 27.488281 15.363281 27.488281 L 15.394531 27.488281 C 16.300781 27.488281 17.285156 27.425781 18.347656 27.300781 C 19.933594 27.105469 22.453125 26.558594 24.664062 25.21875 C 26.855469 23.902344 28.769531 21.664062 28.78125 18.324219 Z M 28.78125 18.253906 "/>
<path style=" stroke:none;fill-rule:nonzero;fill:rgb(100%,100%,100%);fill-opacity:1;" d="M 11.382812 12.902344 C 11.425781 12.585938 11.527344 11.933594 11.972656 11.328125 C 12.015625 11.269531 12.0625 11.214844 12.113281 11.160156 C 12.117188 11.074219 12.101562 10.996094 12.035156 10.933594 C 10.28125 9.726562 7.671875 9.339844 6.496094 9.453125 C 5.691406 9.53125 5.195312 10.410156 5.128906 10.941406 C 5.058594 11.515625 5.175781 12.609375 6.492188 12.949219 C 8.050781 13.347656 10.832031 13.523438 11.226562 13.128906 C 11.285156 13.070312 11.332031 13.019531 11.375 12.964844 C 11.378906 12.945312 11.378906 12.921875 11.382812 12.902344 Z M 11.382812 12.902344 "/>
<path style=" stroke:none;fill-rule:nonzero;fill:rgb(12.941177%,12.941177%,12.941177%);fill-opacity:1;" d="M 10.308594 11.523438 C 10.308594 12.199219 9.746094 12.746094 9.050781 12.746094 C 8.351562 12.746094 7.789062 12.199219 7.789062 11.523438 C 7.789062 10.847656 8.351562 10.300781 9.050781 10.300781 C 9.746094 10.300781 10.308594 10.847656 10.308594 11.523438 "/>
<path style=" stroke:none;fill-rule:nonzero;fill:rgb(100%,100%,100%);fill-opacity:1;" d="M 9.828125 11.238281 C 9.828125 11.453125 9.65625 11.628906 9.441406 11.628906 C 9.226562 11.628906 9.050781 11.453125 9.050781 11.238281 C 9.050781 11.023438 9.226562 10.851562 9.441406 10.851562 C 9.65625 10.851562 9.828125 11.023438 9.828125 11.238281 "/>
<path style=" stroke:none;fill-rule:nonzero;fill:rgb(100%,100%,100%);fill-opacity:1;" d="M 21.574219 13.804688 C 21.574219 13.316406 20.777344 13.289062 20.265625 13.035156 C 19.417969 12.609375 17.964844 10.984375 14.816406 10.765625 C 12.328125 10.589844 11.996094 12.378906 11.917969 12.972656 C 11.808594 13.804688 12.3125 15.238281 15.574219 15.429688 C 18.0625 15.574219 19.527344 14.386719 20.328125 14.230469 C 21.132812 14.074219 21.574219 14.136719 21.574219 13.804688 "/>
<path style=" stroke:none;fill-rule:nonzero;fill:rgb(12.941177%,12.941177%,12.941177%);fill-opacity:1;" d="M 17.996094 13.304688 C 17.996094 14.128906 17.304688 14.800781 16.453125 14.800781 C 15.601562 14.800781 14.910156 14.128906 14.910156 13.304688 C 14.910156 12.476562 15.601562 11.808594 16.453125 11.808594 C 17.304688 11.804688 17.996094 12.476562 17.996094 13.304688 "/>
<path style=" stroke:none;fill-rule:nonzero;fill:rgb(100%,100%,100%);fill-opacity:1;" d="M 17.351562 12.96875 C 17.351562 13.210938 17.152344 13.410156 16.90625 13.410156 C 16.660156 13.410156 16.460938 13.210938 16.460938 12.96875 C 16.460938 12.722656 16.660156 12.523438 16.90625 12.523438 C 17.152344 12.523438 17.351562 12.722656 17.351562 12.96875 "/>
<path style=" stroke:none;fill-rule:nonzero;fill:rgb(14.901961%,60.784316%,30.19608%);fill-opacity:1;" d="M 6.441406 8.914062 C 6.59375 8.898438 6.757812 8.890625 6.933594 8.890625 C 8.304688 8.898438 10.496094 9.304688 12.191406 10.394531 C 12.222656 10.324219 12.257812 10.253906 12.300781 10.191406 C 12.328125 10.144531 12.363281 10.101562 12.398438 10.054688 C 11.175781 8.871094 9.738281 8.503906 7.824219 8.316406 C 7.609375 8.296875 7.414062 8.285156 7.230469 8.285156 C 6.144531 8.308594 5.808594 8.597656 5.804688 9.066406 C 5.804688 9.078125 5.808594 9.09375 5.808594 9.105469 C 5.996094 9.007812 6.207031 8.9375 6.441406 8.914062 Z M 24.324219 11.144531 C 24.261719 11.933594 24.101562 12.226562 24.050781 12.222656 C 24 12.214844 23.972656 12.003906 23.929688 11.625 C 23.882812 11.242188 23.820312 10.695312 23.671875 10.042969 C 23.515625 9.394531 23.265625 8.632812 22.777344 7.941406 C 22.53125 7.605469 22.226562 7.289062 21.851562 7.046875 C 21.753906 6.992188 21.660156 6.925781 21.558594 6.878906 L 21.40625 6.804688 L 21.246094 6.738281 C 21.140625 6.691406 21.015625 6.660156 20.902344 6.621094 C 20.78125 6.585938 20.664062 6.535156 20.542969 6.511719 C 20.101562 6.390625 19.648438 6.320312 19.199219 6.289062 C 18.746094 6.277344 18.300781 6.320312 17.875 6.433594 C 17.21875 6.601562 16.621094 6.972656 16.195312 7.480469 C 16.367188 7.453125 16.542969 7.457031 16.714844 7.445312 C 16.800781 7.441406 16.886719 7.433594 16.972656 7.4375 C 17.058594 7.441406 17.144531 7.445312 17.226562 7.449219 C 17.394531 7.464844 17.5625 7.46875 17.722656 7.492188 C 17.878906 7.515625 18.035156 7.542969 18.1875 7.570312 C 18.261719 7.582031 18.339844 7.597656 18.410156 7.609375 C 18.484375 7.625 18.554688 7.648438 18.625 7.664062 C 18.761719 7.703125 18.898438 7.742188 19.03125 7.777344 C 19.292969 7.84375 19.523438 7.949219 19.738281 8.03125 C 20.167969 8.1875 20.488281 8.375 20.710938 8.503906 C 20.933594 8.632812 21.046875 8.71875 21.03125 8.753906 C 21.011719 8.789062 20.871094 8.769531 20.625 8.703125 C 20.382812 8.640625 20.042969 8.511719 19.613281 8.40625 C 18.765625 8.167969 17.554688 7.886719 16.25 8.035156 C 15.65625 8.101562 15.085938 8.296875 14.585938 8.597656 C 14.460938 8.675781 14.34375 8.761719 14.226562 8.847656 L 14.070312 8.988281 C 14.632812 8.828125 15.222656 8.785156 15.792969 8.816406 C 16.582031 8.871094 17.308594 9.054688 17.9375 9.285156 C 18.570312 9.511719 19.113281 9.777344 19.550781 10.023438 C 20.429688 10.519531 20.910156 10.914062 20.875 10.96875 C 20.835938 11.035156 20.285156 10.753906 19.386719 10.355469 C 18.9375 10.15625 18.398438 9.933594 17.785156 9.742188 C 17.171875 9.546875 16.484375 9.390625 15.757812 9.339844 C 15.097656 9.304688 14.425781 9.371094 13.832031 9.621094 C 13.539062 9.746094 13.261719 9.914062 13.035156 10.128906 C 12.917969 10.230469 12.820312 10.351562 12.738281 10.476562 C 12.6875 10.550781 12.652344 10.632812 12.625 10.714844 C 13.089844 10.40625 13.707031 10.207031 14.484375 10.210938 C 14.605469 10.210938 14.726562 10.214844 14.855469 10.226562 C 16.515625 10.339844 17.753906 10.832031 18.667969 11.351562 C 19.574219 11.863281 20.199219 12.40625 20.507812 12.550781 C 20.769531 12.707031 21.304688 12.710938 21.804688 13.113281 C 21.976562 13.257812 22.121094 13.53125 22.117188 13.804688 C 22.128906 14.003906 22.011719 14.28125 21.832031 14.410156 C 21.65625 14.546875 21.503906 14.578125 21.367188 14.613281 C 21.089844 14.667969 20.804688 14.6875 20.433594 14.761719 C 20.21875 14.792969 19.652344 15.09375 18.914062 15.394531 C 18.167969 15.691406 17.199219 15.980469 15.996094 15.980469 C 15.996094 15.980469 15.992188 15.980469 15.992188 15.980469 C 15.847656 15.980469 15.695312 15.976562 15.542969 15.96875 C 13.972656 15.875 12.941406 15.511719 12.273438 14.976562 C 11.960938 14.730469 11.746094 14.445312 11.601562 14.15625 C 11.566406 14.320312 11.558594 14.5 11.585938 14.675781 C 11.632812 14.996094 11.765625 15.3125 11.960938 15.585938 C 12.160156 15.855469 12.417969 16.085938 12.714844 16.269531 C 12.785156 16.320312 12.867188 16.355469 12.941406 16.398438 L 13.054688 16.460938 L 13.179688 16.515625 L 13.429688 16.621094 C 13.511719 16.65625 13.601562 16.6875 13.683594 16.71875 C 13.867188 16.789062 14.054688 16.835938 14.238281 16.894531 C 14.425781 16.9375 14.605469 16.988281 14.789062 17.011719 C 15.15625 17.078125 15.511719 17.097656 15.855469 17.097656 C 16.539062 17.09375 17.15625 16.988281 17.667969 16.867188 C 18.695312 16.613281 19.324219 16.367188 19.355469 16.449219 C 19.382812 16.507812 18.816406 16.882812 17.777344 17.246094 C 17.257812 17.421875 16.609375 17.578125 15.867188 17.613281 C 15.496094 17.628906 15.105469 17.617188 14.703125 17.554688 C 14.503906 17.527344 14.304688 17.476562 14.097656 17.433594 C 13.898438 17.375 13.691406 17.324219 13.496094 17.242188 C 13.402344 17.210938 13.308594 17.175781 13.21875 17.140625 L 12.949219 17.023438 L 12.816406 16.964844 L 12.683594 16.890625 C 12.59375 16.84375 12.5 16.800781 12.417969 16.742188 C 12.070312 16.527344 11.753906 16.25 11.511719 15.910156 C 11.265625 15.574219 11.09375 15.175781 11.03125 14.753906 C 11 14.539062 11 14.320312 11.039062 14.101562 C 11.054688 13.988281 11.085938 13.875 11.132812 13.765625 C 11.035156 13.792969 10.933594 13.8125 10.824219 13.832031 C 10.546875 13.875 10.226562 13.890625 9.871094 13.890625 C 8.777344 13.890625 7.371094 13.730469 6.355469 13.472656 C 6.144531 13.421875 5.957031 13.347656 5.789062 13.261719 C 5.652344 13.457031 5.820312 13.8125 6.105469 13.957031 C 6.203125 14.003906 6.316406 14.023438 6.414062 14.074219 C 6.496094 14.117188 6.480469 14.152344 6.527344 14.316406 C 6.566406 14.433594 6.613281 14.550781 6.671875 14.664062 C 6.703125 14.726562 6.738281 14.789062 6.78125 14.84375 C 6.859375 14.941406 6.9375 15.039062 7.035156 15.121094 C 7.171875 15.230469 7.324219 15.3125 7.476562 15.394531 C 7.636719 15.480469 7.800781 15.558594 7.96875 15.625 C 8.0625 15.660156 8.160156 15.695312 8.257812 15.722656 C 8.410156 15.765625 8.5625 15.796875 8.71875 15.816406 C 8.960938 15.847656 9.203125 15.851562 9.441406 15.851562 C 9.609375 15.851562 9.773438 15.84375 9.9375 15.859375 C 10.007812 15.863281 10.074219 15.871094 10.132812 15.90625 C 10.136719 15.90625 10.148438 15.914062 10.148438 15.914062 C 10.261719 15.9375 8.476562 16.835938 6.675781 15.492188 C 5.964844 16.089844 5.753906 16.910156 5.75 17.53125 C 5.75 17.636719 5.757812 17.734375 5.769531 17.828125 C 6.050781 17.832031 6.335938 17.917969 6.585938 18.085938 C 8.046875 19.078125 10.609375 19.710938 13.207031 19.707031 C 13.21875 19.707031 13.230469 19.707031 13.242188 19.707031 C 13.253906 19.707031 13.257812 19.707031 13.257812 19.707031 C 15.113281 19.707031 16.996094 19.40625 18.527344 18.835938 C 19.429688 18.503906 20.324219 18.066406 20.976562 17.472656 C 21.238281 17.238281 21.5 16.957031 21.851562 16.695312 C 22.195312 16.433594 22.65625 16.207031 23.210938 16.160156 C 23.28125 16.152344 23.351562 16.148438 23.417969 16.148438 C 23.949219 16.148438 24.4375 16.347656 24.785156 16.667969 C 25.132812 16.984375 25.355469 17.402344 25.453125 17.847656 C 25.488281 18.007812 25.503906 18.167969 25.503906 18.328125 C 25.503906 18.355469 25.5 18.382812 25.5 18.410156 C 25.503906 18.449219 25.503906 18.492188 25.503906 18.535156 C 25.5 19.035156 25.363281 19.511719 25.105469 19.910156 C 23.980469 21.609375 22.179688 22.71875 20.183594 23.4375 C 18.179688 24.15625 15.914062 24.492188 13.675781 24.496094 C 11.570312 24.488281 9.480469 24.191406 7.640625 23.554688 C 8.773438 25.039062 11.089844 26.457031 15.425781 26.464844 C 16.289062 26.464844 17.230469 26.40625 18.257812 26.28125 C 19.742188 26.101562 22.148438 25.570312 24.160156 24.34375 C 26.175781 23.109375 27.785156 21.222656 27.789062 18.257812 C 27.785156 12.648438 25.234375 11.308594 24.324219 11.144531 Z M 12.703125 9.722656 C 12.804688 9.628906 12.910156 9.546875 13.019531 9.472656 C 13.03125 9.449219 13.039062 9.425781 13.050781 9.402344 C 13.09375 9.328125 13.128906 9.242188 13.183594 9.171875 L 13.335938 8.957031 C 13.386719 8.894531 13.445312 8.828125 13.503906 8.765625 L 13.589844 8.667969 L 13.683594 8.585938 L 13.875 8.414062 C 14.011719 8.3125 14.148438 8.210938 14.292969 8.121094 C 14.570312 7.953125 14.863281 7.816406 15.167969 7.710938 C 15.222656 7.605469 15.285156 7.488281 15.304688 7.457031 C 15.550781 7.046875 15.878906 6.6875 16.257812 6.402344 C 16.355469 6.332031 16.453125 6.265625 16.554688 6.203125 C 16.253906 5.933594 15.910156 5.707031 15.496094 5.539062 C 14.6875 5.21875 13.949219 5.082031 13.292969 5.082031 C 11.835938 5.082031 10.777344 5.753906 10.199219 6.625 C 11.988281 6.921875 12.394531 7.371094 12.367188 7.433594 C 12.335938 7.511719 11.980469 7.421875 11.414062 7.320312 C 10.851562 7.222656 10.066406 7.125 9.21875 7.226562 C 8.609375 7.304688 8.007812 7.503906 7.515625 7.839844 C 7.628906 7.84375 7.746094 7.851562 7.871094 7.867188 C 9.800781 8.050781 11.378906 8.441406 12.703125 9.722656 Z M 12.703125 9.722656 "/>
<path style=" stroke:none;fill-rule:nonzero;fill:rgb(75.294119%,47.843137%,30.588236%);fill-opacity:1;" d="M 24.820312 17.988281 C 24.664062 17.289062 24.113281 16.730469 23.269531 16.804688 C 22.425781 16.878906 21.976562 17.441406 21.414062 17.953125 C 20.660156 18.632812 19.695312 19.097656 18.753906 19.445312 C 17.125 20.046875 15.175781 20.355469 13.246094 20.355469 C 10.535156 20.359375 7.867188 19.726562 6.222656 18.625 C 5.808594 18.34375 5.242188 18.457031 4.964844 18.875 C 4.769531 19.171875 4.773438 19.539062 4.9375 19.828125 C 6.613281 20.925781 9.855469 21.929688 13.347656 21.925781 C 16.699219 21.925781 20.277344 21.011719 23 18.449219 C 23.105469 18.347656 23.269531 18.355469 23.367188 18.457031 C 23.464844 18.5625 23.457031 18.726562 23.355469 18.824219 C 20.507812 21.507812 16.789062 22.445312 13.347656 22.445312 C 10.046875 22.441406 7 21.589844 5.128906 20.546875 C 4.992188 20.929688 5.125 21.371094 5.480469 21.605469 C 7.613281 23 10.621094 23.632812 13.679688 23.640625 C 15.847656 23.636719 18.046875 23.308594 19.964844 22.621094 C 21.882812 21.929688 23.550781 20.882812 24.5625 19.347656 C 24.800781 18.992188 24.921875 18.441406 24.820312 17.988281 Z M 24.820312 17.988281 "/>
</g>
</svg>
