<?xml version="1.0" encoding="UTF-8"?>
<svg xmlns="http://www.w3.org/2000/svg" xmlns:xlink="http://www.w3.org/1999/xlink" width="64px" height="64px" viewBox="0 0 64 64" version="1.1">
<g id="surface1">
<path style=" stroke:none;fill-rule:nonzero;fill:rgb(12.54902%,50.980395%,25.490198%);fill-opacity:1;" d="M 63.945312 31.972656 C 63.945312 14.316406 49.628906 0 31.972656 0 C 14.3125 0 0 14.316406 0 31.972656 C 0 49.628906 14.3125 63.945312 31.972656 63.945312 C 49.628906 63.945312 63.945312 49.628906 63.945312 31.972656 Z M 63.945312 31.972656 "/>
<path style=" stroke:none;fill-rule:nonzero;fill:rgb(14.901961%,60.784316%,30.19608%);fill-opacity:1;" d="M 61.382812 31.972656 C 61.382812 15.730469 48.214844 2.5625 31.972656 2.5625 C 15.730469 2.5625 2.5625 15.730469 2.5625 31.972656 C 2.5625 48.214844 15.730469 61.382812 31.972656 61.382812 C 48.214844 61.382812 61.382812 48.214844 61.382812 31.972656 Z M 61.382812 31.972656 "/>
<path style=" stroke:none;fill-rule:nonzero;fill:rgb(8.627451%,32.549021%,16.470589%);fill-opacity:1;" d="M 1.996094 31.972656 C 1.996094 15.417969 15.417969 1.996094 31.972656 1.996094 C 48.527344 1.996094 61.945312 15.417969 61.945312 31.972656 C 61.945312 48.527344 48.527344 61.945312 31.972656 61.945312 C 15.417969 61.945312 1.996094 48.527344 1.996094 31.972656 Z M 11.496094 11.496094 C 6.257812 16.738281 3.015625 23.972656 3.015625 31.972656 C 3.015625 39.96875 6.257812 47.203125 11.496094 52.449219 C 16.738281 57.6875 23.972656 60.929688 31.972656 60.929688 C 39.96875 60.929688 47.207031 57.6875 52.449219 52.449219 C 57.6875 47.203125 60.929688 39.96875 60.929688 31.972656 C 60.929688 23.972656 57.6875 16.738281 52.449219 11.496094 C 47.207031 6.253906 39.96875 3.015625 31.972656 3.015625 C 23.972656 3.015625 16.738281 6.253906 11.496094 11.496094 Z M 11.496094 11.496094 "/>
<path style=" stroke:none;fill-rule:nonzero;fill:rgb(12.941177%,12.941177%,12.941177%);fill-opacity:1;" d="M 57.5625 36.507812 C 57.566406 30.148438 55.984375 26.070312 53.984375 23.578125 L 53.984375 23.574219 C 52.53125 21.78125 50.945312 20.832031 49.628906 20.433594 C 49.515625 19.828125 49.359375 19.15625 49.144531 18.457031 C 48.347656 15.859375 46.652344 12.664062 43.074219 11.21875 C 41.253906 10.492188 39.527344 10.15625 37.941406 10.152344 C 37.929688 10.152344 37.914062 10.152344 37.902344 10.152344 C 36.597656 10.152344 35.390625 10.382812 34.3125 10.785156 C 33.574219 10.136719 32.699219 9.582031 31.6875 9.179688 C 29.871094 8.453125 28.148438 8.121094 26.5625 8.113281 C 26.546875 8.113281 26.53125 8.113281 26.511719 8.113281 C 22.921875 8.109375 20.113281 9.84375 18.597656 12.167969 C 18.457031 12.179688 18.3125 12.191406 18.164062 12.210938 C 16.277344 12.457031 14.300781 13.136719 12.742188 14.605469 C 12.714844 14.628906 12.683594 14.65625 12.65625 14.6875 C 12.085938 14.800781 11.554688 14.992188 11.066406 15.289062 C 10.082031 15.878906 9.488281 16.96875 9.496094 18.101562 C 9.496094 18.101562 9.496094 18.117188 9.496094 18.152344 C 9.496094 18.3125 9.507812 18.472656 9.527344 18.628906 C 9.484375 18.679688 9.441406 18.734375 9.398438 18.785156 C 8.710938 19.675781 8.292969 20.652344 8.164062 21.617188 C 8.132812 21.863281 8.117188 22.125 8.117188 22.40625 C 8.117188 23.265625 8.28125 24.382812 8.953125 25.460938 C 9.070312 25.65625 9.203125 25.839844 9.355469 26.019531 C 9.308594 26.214844 9.285156 26.410156 9.285156 26.609375 L 9.28125 26.609375 C 9.28125 26.621094 9.28125 26.667969 9.285156 26.726562 C 9.328125 27.925781 10.042969 28.980469 11.113281 29.554688 C 11.175781 29.714844 11.246094 29.871094 11.324219 30.023438 C 9.84375 31.617188 9.386719 33.574219 9.390625 35.050781 C 9.390625 35.058594 9.390625 35.074219 9.390625 35.089844 C 9.398438 35.382812 9.414062 35.667969 9.449219 35.941406 C 8.882812 36.359375 8.445312 36.945312 8.214844 37.648438 C 8.09375 38.019531 8.03125 38.40625 8.03125 38.792969 C 8.035156 39.515625 8.242188 40.226562 8.644531 40.828125 C 8.585938 41.097656 8.554688 41.367188 8.554688 41.632812 C 8.554688 42.855469 9.171875 44.058594 10.285156 44.730469 C 10.855469 45.105469 11.457031 45.449219 12.078125 45.769531 C 13.929688 50.164062 19.410156 54.976562 30.617188 54.976562 C 30.65625 54.976562 30.691406 54.976562 30.730469 54.976562 L 30.789062 54.976562 C 32.605469 54.976562 34.566406 54.855469 36.699219 54.597656 C 39.867188 54.207031 44.90625 53.121094 49.328125 50.433594 C 53.710938 47.804688 57.535156 43.324219 57.566406 36.648438 L 57.566406 36.515625 Z M 57.5625 36.507812 "/>
<path style=" stroke:none;fill-rule:nonzero;fill:rgb(100%,100%,100%);fill-opacity:1;" d="M 22.761719 25.800781 C 22.847656 25.171875 23.050781 23.871094 23.949219 22.65625 C 24.03125 22.539062 24.128906 22.429688 24.226562 22.316406 C 24.234375 22.144531 24.199219 21.996094 24.070312 21.863281 C 20.5625 19.453125 15.347656 18.675781 12.992188 18.902344 C 11.382812 19.0625 10.390625 20.816406 10.257812 21.878906 C 10.117188 23.03125 10.355469 25.21875 12.984375 25.894531 C 16.105469 26.699219 21.664062 27.046875 22.453125 26.257812 C 22.566406 26.144531 22.664062 26.035156 22.753906 25.933594 C 22.757812 25.890625 22.757812 25.84375 22.761719 25.800781 Z M 22.761719 25.800781 "/>
<path style=" stroke:none;fill-rule:nonzero;fill:rgb(12.941177%,12.941177%,12.941177%);fill-opacity:1;" d="M 20.617188 23.046875 C 20.617188 24.398438 19.492188 25.488281 18.097656 25.488281 C 16.707031 25.488281 15.578125 24.398438 15.578125 23.046875 C 15.578125 21.699219 16.707031 20.601562 18.097656 20.601562 C 19.492188 20.601562 20.617188 21.699219 20.617188 23.046875 "/>
<path style=" stroke:none;fill-rule:nonzero;fill:rgb(100%,100%,100%);fill-opacity:1;" d="M 19.660156 22.480469 C 19.660156 22.910156 19.308594 23.257812 18.878906 23.257812 C 18.449219 23.257812 18.101562 22.910156 18.101562 22.480469 C 18.101562 22.050781 18.449219 21.699219 18.878906 21.699219 C 19.3125 21.699219 19.660156 22.050781 19.660156 22.480469 "/>
<path style=" stroke:none;fill-rule:nonzero;fill:rgb(100%,100%,100%);fill-opacity:1;" d="M 43.148438 27.609375 C 43.148438 26.632812 41.558594 26.578125 40.535156 26.066406 C 38.832031 25.21875 35.929688 21.972656 29.632812 21.53125 C 24.65625 21.183594 23.992188 24.757812 23.835938 25.941406 C 23.617188 27.609375 24.625 30.476562 31.144531 30.855469 C 36.125 31.148438 39.054688 28.777344 40.660156 28.464844 C 42.265625 28.148438 43.148438 28.273438 43.148438 27.609375 "/>
<path style=" stroke:none;fill-rule:nonzero;fill:rgb(12.941177%,12.941177%,12.941177%);fill-opacity:1;" d="M 35.992188 26.605469 C 35.992188 28.257812 34.609375 29.597656 32.902344 29.597656 C 31.199219 29.597656 29.816406 28.257812 29.816406 26.605469 C 29.816406 24.953125 31.199219 23.613281 32.902344 23.613281 C 34.609375 23.613281 35.992188 24.953125 35.992188 26.605469 "/>
<path style=" stroke:none;fill-rule:nonzero;fill:rgb(100%,100%,100%);fill-opacity:1;" d="M 34.703125 25.933594 C 34.703125 26.425781 34.304688 26.824219 33.816406 26.824219 C 33.320312 26.824219 32.925781 26.425781 32.925781 25.933594 C 32.925781 25.445312 33.320312 25.046875 33.816406 25.046875 C 34.304688 25.046875 34.703125 25.445312 34.703125 25.933594 "/>
<path style=" stroke:none;fill-rule:nonzero;fill:rgb(14.901961%,60.784316%,30.19608%);fill-opacity:1;" d="M 12.878906 17.828125 C 13.1875 17.792969 13.515625 17.785156 13.867188 17.785156 C 16.609375 17.796875 20.996094 18.609375 24.378906 20.789062 C 24.449219 20.648438 24.515625 20.507812 24.597656 20.378906 C 24.660156 20.285156 24.730469 20.199219 24.796875 20.109375 C 22.347656 17.738281 19.476562 17.007812 15.652344 16.632812 C 15.21875 16.589844 14.824219 16.570312 14.464844 16.570312 C 12.285156 16.617188 11.617188 17.195312 11.605469 18.136719 C 11.605469 18.15625 11.617188 18.1875 11.617188 18.207031 C 11.992188 18.011719 12.414062 17.875 12.878906 17.828125 Z M 48.648438 22.289062 C 48.527344 23.867188 48.203125 24.457031 48.101562 24.445312 C 48 24.433594 47.945312 24.007812 47.859375 23.246094 C 47.765625 22.488281 47.644531 21.390625 47.339844 20.085938 C 47.03125 18.792969 46.53125 17.265625 45.554688 15.886719 C 45.0625 15.210938 44.449219 14.578125 43.699219 14.09375 C 43.507812 13.980469 43.324219 13.851562 43.117188 13.757812 L 42.808594 13.605469 L 42.488281 13.476562 C 42.28125 13.382812 42.035156 13.316406 41.800781 13.238281 C 41.5625 13.171875 41.328125 13.074219 41.085938 13.019531 C 40.199219 12.777344 39.296875 12.636719 38.394531 12.582031 C 37.496094 12.554688 36.601562 12.636719 35.75 12.867188 C 34.433594 13.207031 33.242188 13.945312 32.390625 14.960938 C 32.738281 14.902344 33.085938 14.914062 33.425781 14.890625 C 33.601562 14.882812 33.773438 14.867188 33.949219 14.871094 C 34.117188 14.882812 34.289062 14.890625 34.453125 14.902344 C 34.792969 14.929688 35.125 14.933594 35.441406 14.980469 C 35.761719 15.035156 36.070312 15.085938 36.375 15.136719 C 36.527344 15.164062 36.675781 15.191406 36.824219 15.21875 C 36.96875 15.25 37.109375 15.292969 37.25 15.332031 C 37.527344 15.410156 37.796875 15.484375 38.0625 15.558594 C 38.585938 15.6875 39.046875 15.902344 39.476562 16.0625 C 40.339844 16.378906 40.980469 16.753906 41.425781 17.003906 C 41.867188 17.261719 42.09375 17.4375 42.058594 17.507812 C 42.027344 17.578125 41.742188 17.535156 41.253906 17.402344 C 40.761719 17.277344 40.089844 17.019531 39.222656 16.808594 C 37.527344 16.339844 35.105469 15.777344 32.503906 16.074219 C 31.3125 16.199219 30.171875 16.59375 29.167969 17.195312 C 28.925781 17.351562 28.691406 17.519531 28.457031 17.695312 L 28.140625 17.976562 C 29.269531 17.652344 30.441406 17.570312 31.582031 17.628906 C 33.164062 17.742188 34.617188 18.109375 35.878906 18.570312 C 37.144531 19.023438 38.226562 19.554688 39.101562 20.046875 C 40.859375 21.035156 41.820312 21.824219 41.753906 21.9375 C 41.671875 22.074219 40.570312 21.507812 38.773438 20.714844 C 37.875 20.316406 36.792969 19.871094 35.570312 19.484375 C 34.34375 19.097656 32.96875 18.78125 31.519531 18.675781 C 30.195312 18.605469 28.851562 18.738281 27.664062 19.246094 C 27.078125 19.496094 26.523438 19.828125 26.070312 20.253906 C 25.835938 20.464844 25.644531 20.703125 25.480469 20.949219 C 25.378906 21.105469 25.304688 21.269531 25.25 21.425781 C 26.175781 20.816406 27.417969 20.410156 28.972656 20.425781 C 29.210938 20.425781 29.457031 20.433594 29.710938 20.449219 C 33.03125 20.679688 35.507812 21.667969 37.335938 22.703125 C 39.148438 23.730469 40.402344 24.8125 41.015625 25.097656 C 41.539062 25.414062 42.609375 25.425781 43.613281 26.230469 C 43.953125 26.515625 44.246094 27.0625 44.230469 27.609375 C 44.257812 28.007812 44.023438 28.566406 43.660156 28.824219 C 43.316406 29.09375 43.007812 29.160156 42.734375 29.226562 C 42.183594 29.339844 41.613281 29.375 40.863281 29.527344 C 40.433594 29.585938 39.308594 30.183594 37.832031 30.785156 C 36.339844 31.386719 34.398438 31.964844 31.992188 31.964844 C 31.988281 31.964844 31.988281 31.964844 31.984375 31.964844 C 31.691406 31.964844 31.390625 31.957031 31.082031 31.9375 C 27.941406 31.753906 25.878906 31.019531 24.546875 29.953125 C 23.921875 29.460938 23.488281 28.890625 23.199219 28.3125 C 23.128906 28.640625 23.117188 29 23.171875 29.347656 C 23.265625 29.992188 23.53125 30.621094 23.925781 31.167969 C 24.320312 31.714844 24.839844 32.175781 25.429688 32.539062 C 25.566406 32.640625 25.730469 32.707031 25.882812 32.792969 L 26.113281 32.917969 L 26.359375 33.027344 L 26.859375 33.246094 C 27.027344 33.316406 27.199219 33.371094 27.367188 33.4375 C 27.734375 33.582031 28.113281 33.675781 28.476562 33.792969 C 28.851562 33.871094 29.214844 33.976562 29.582031 34.023438 C 30.308594 34.160156 31.027344 34.195312 31.707031 34.199219 C 33.078125 34.1875 34.3125 33.976562 35.339844 33.730469 C 37.390625 33.222656 38.644531 32.738281 38.710938 32.894531 C 38.769531 33.019531 37.636719 33.761719 35.554688 34.492188 C 34.515625 34.84375 33.21875 35.15625 31.734375 35.226562 C 30.996094 35.253906 30.210938 35.234375 29.410156 35.105469 C 29.003906 35.058594 28.605469 34.953125 28.199219 34.867188 C 27.800781 34.746094 27.386719 34.644531 26.988281 34.488281 C 26.804688 34.417969 26.617188 34.355469 26.4375 34.28125 L 25.902344 34.046875 L 25.632812 33.929688 L 25.363281 33.785156 C 25.1875 33.683594 25 33.605469 24.835938 33.484375 C 24.140625 33.058594 23.511719 32.5 23.023438 31.824219 C 22.53125 31.148438 22.1875 30.351562 22.066406 29.503906 C 22 29.082031 22.003906 28.644531 22.074219 28.207031 C 22.109375 27.980469 22.175781 27.753906 22.261719 27.53125 C 22.066406 27.585938 21.867188 27.621094 21.652344 27.664062 C 21.097656 27.75 20.457031 27.785156 19.746094 27.785156 C 17.558594 27.78125 14.738281 27.460938 12.714844 26.945312 C 12.289062 26.839844 11.914062 26.695312 11.574219 26.519531 C 11.300781 26.914062 11.640625 27.625 12.214844 27.910156 C 12.410156 28.007812 12.632812 28.046875 12.828125 28.148438 C 12.992188 28.234375 12.960938 28.300781 13.058594 28.632812 C 13.128906 28.867188 13.226562 29.105469 13.339844 29.324219 C 13.40625 29.453125 13.476562 29.574219 13.566406 29.6875 C 13.71875 29.886719 13.875 30.082031 14.070312 30.238281 C 14.339844 30.457031 14.652344 30.625 14.957031 30.785156 C 15.273438 30.957031 15.601562 31.113281 15.9375 31.246094 C 16.125 31.320312 16.320312 31.386719 16.515625 31.445312 C 16.816406 31.53125 17.128906 31.59375 17.4375 31.632812 C 17.917969 31.691406 18.402344 31.703125 18.886719 31.699219 C 19.214844 31.699219 19.550781 31.6875 19.878906 31.714844 C 20.011719 31.726562 20.152344 31.742188 20.269531 31.8125 C 20.273438 31.8125 20.296875 31.828125 20.296875 31.828125 C 20.519531 31.875 16.953125 33.667969 13.351562 30.988281 C 11.933594 32.183594 11.507812 33.820312 11.503906 35.0625 C 11.5 35.273438 11.511719 35.472656 11.535156 35.652344 C 12.097656 35.667969 12.667969 35.835938 13.171875 36.171875 C 16.089844 38.15625 21.214844 39.425781 26.410156 39.410156 C 26.433594 39.410156 26.460938 39.410156 26.484375 39.410156 C 26.507812 39.410156 26.515625 39.410156 26.515625 39.410156 C 30.222656 39.414062 33.988281 38.808594 37.054688 37.675781 C 38.863281 37.007812 40.648438 36.132812 41.957031 34.945312 C 42.476562 34.476562 43 33.910156 43.699219 33.386719 C 44.394531 32.867188 45.308594 32.410156 46.417969 32.320312 C 46.5625 32.304688 46.699219 32.300781 46.835938 32.300781 C 47.902344 32.292969 48.875 32.695312 49.570312 33.332031 C 50.269531 33.96875 50.707031 34.808594 50.90625 35.695312 C 50.980469 36.015625 51.007812 36.335938 51.007812 36.652344 C 51.007812 36.707031 51.003906 36.761719 51 36.816406 C 51.007812 36.902344 51.007812 36.984375 51.007812 37.066406 C 51 38.066406 50.730469 39.019531 50.210938 39.820312 C 47.960938 43.222656 44.359375 45.4375 40.371094 46.878906 C 36.355469 48.3125 31.828125 48.984375 27.351562 48.988281 C 23.136719 48.976562 18.964844 48.382812 15.28125 47.105469 C 17.546875 50.082031 22.179688 52.914062 30.851562 52.925781 C 32.574219 52.925781 34.460938 52.8125 36.515625 52.5625 C 39.480469 52.207031 44.300781 51.140625 48.324219 48.683594 C 52.351562 46.214844 55.570312 42.441406 55.578125 36.511719 C 55.570312 25.296875 50.464844 22.621094 48.648438 22.289062 Z M 25.40625 19.441406 C 25.605469 19.261719 25.820312 19.097656 26.039062 18.945312 C 26.0625 18.902344 26.074219 18.847656 26.101562 18.808594 C 26.1875 18.65625 26.257812 18.484375 26.367188 18.347656 L 26.667969 17.917969 C 26.777344 17.785156 26.894531 17.660156 27.007812 17.53125 L 27.179688 17.339844 L 27.753906 16.824219 C 28.023438 16.621094 28.300781 16.421875 28.585938 16.242188 C 29.140625 15.90625 29.730469 15.636719 30.335938 15.425781 C 30.441406 15.207031 30.570312 14.976562 30.609375 14.910156 C 31.105469 14.09375 31.757812 13.375 32.515625 12.808594 C 32.707031 12.664062 32.90625 12.53125 33.109375 12.40625 C 32.511719 11.871094 31.816406 11.410156 30.992188 11.082031 C 29.371094 10.4375 27.898438 10.164062 26.585938 10.164062 C 23.671875 10.164062 21.554688 11.511719 20.398438 13.246094 C 23.980469 13.839844 24.792969 14.742188 24.734375 14.867188 C 24.671875 15.023438 23.957031 14.847656 22.828125 14.640625 C 21.703125 14.445312 20.132812 14.25 18.441406 14.453125 C 17.21875 14.605469 16.019531 15.011719 15.03125 15.679688 C 15.257812 15.691406 15.492188 15.707031 15.742188 15.730469 C 19.601562 16.105469 22.757812 16.882812 25.40625 19.441406 Z M 25.40625 19.441406 "/>
<path style=" stroke:none;fill-rule:nonzero;fill:rgb(75.294119%,47.843137%,30.588236%);fill-opacity:1;" d="M 49.644531 35.976562 C 49.332031 34.578125 48.226562 33.460938 46.535156 33.609375 C 44.851562 33.757812 43.957031 34.882812 42.828125 35.90625 C 41.324219 37.265625 39.390625 38.195312 37.503906 38.890625 C 34.25 40.089844 30.347656 40.710938 26.496094 40.707031 C 21.066406 40.722656 15.730469 39.457031 12.449219 37.246094 C 11.617188 36.6875 10.488281 36.917969 9.933594 37.75 C 9.539062 38.34375 9.542969 39.078125 9.875 39.660156 C 13.226562 41.847656 19.707031 43.855469 26.691406 43.851562 C 33.398438 43.851562 40.550781 42.027344 46 36.894531 C 46.207031 36.699219 46.535156 36.710938 46.734375 36.917969 C 46.929688 37.125 46.917969 37.453125 46.707031 37.652344 C 41.011719 43.011719 33.578125 44.886719 26.695312 44.886719 C 26.695312 44.886719 26.695312 44.886719 26.691406 44.886719 C 20.089844 44.882812 13.996094 43.179688 10.253906 41.089844 C 9.980469 41.859375 10.25 42.742188 10.960938 43.210938 C 15.226562 46 21.238281 47.265625 27.355469 47.28125 C 31.699219 47.277344 36.089844 46.617188 39.933594 45.242188 C 43.761719 43.863281 47.101562 41.769531 49.128906 38.691406 C 49.597656 37.980469 49.84375 36.878906 49.644531 35.976562 Z M 49.644531 35.976562 "/>
</g>
</svg>
