<?xml version="1.0" encoding="UTF-8"?>
<svg xmlns="http://www.w3.org/2000/svg" xmlns:xlink="http://www.w3.org/1999/xlink" width="256px" height="256px" viewBox="0 0 256 256" version="1.1">
<g id="surface1">
<path style=" stroke:none;fill-rule:nonzero;fill:rgb(12.54902%,50.980395%,25.490198%);fill-opacity:1;" d="M 255.78125 127.886719 C 255.78125 57.257812 198.519531 0 127.890625 0 C 57.253906 0 0 57.257812 0 127.886719 C 0 198.515625 57.253906 255.777344 127.890625 255.777344 C 198.519531 255.777344 255.78125 198.515625 255.78125 127.886719 Z M 255.78125 127.886719 "/>
<path style=" stroke:none;fill-rule:nonzero;fill:rgb(14.901961%,60.784316%,30.19608%);fill-opacity:1;" d="M 245.527344 127.890625 C 245.527344 62.921875 192.855469 10.253906 127.890625 10.253906 C 62.917969 10.253906 10.253906 62.921875 10.253906 127.890625 C 10.253906 192.855469 62.917969 245.527344 127.890625 245.527344 C 192.855469 245.527344 245.527344 192.855469 245.527344 127.890625 Z M 245.527344 127.890625 "/>
<path style=" stroke:none;fill-rule:nonzero;fill:rgb(8.627451%,32.549021%,16.470589%);fill-opacity:1;" d="M 7.988281 127.886719 C 7.988281 61.664062 61.667969 7.984375 127.890625 7.984375 C 194.109375 7.984375 247.789062 61.664062 247.789062 127.886719 C 247.789062 194.105469 194.109375 247.78125 127.890625 247.785156 C 61.667969 247.78125 7.988281 194.105469 7.988281 127.886719 Z M 45.988281 45.984375 C 25.023438 66.949219 12.066406 95.894531 12.0625 127.886719 C 12.066406 159.875 25.023438 188.8125 45.988281 209.792969 C 66.953125 230.75 95.898438 243.710938 127.890625 243.710938 C 159.878906 243.710938 188.820312 230.75 209.792969 209.792969 C 230.753906 188.8125 243.710938 159.875 243.710938 127.886719 C 243.710938 95.894531 230.753906 66.949219 209.792969 45.984375 C 188.820312 25.019531 159.878906 12.058594 127.890625 12.058594 C 95.898438 12.058594 66.953125 25.019531 45.988281 45.984375 Z M 45.988281 45.984375 "/>
<path style=" stroke:none;fill-rule:nonzero;fill:rgb(12.941177%,12.941177%,12.941177%);fill-opacity:1;" d="M 230.257812 146.023438 C 230.269531 120.597656 223.929688 104.289062 215.941406 94.3125 L 215.933594 94.300781 C 210.128906 87.121094 203.78125 83.335938 198.523438 81.738281 C 198.066406 79.304688 197.441406 76.628906 196.582031 73.835938 C 193.390625 63.433594 186.617188 50.652344 172.292969 44.878906 C 165.007812 41.976562 158.117188 40.632812 151.765625 40.613281 C 151.71875 40.613281 151.660156 40.609375 151.609375 40.609375 C 146.386719 40.609375 141.558594 41.527344 137.246094 43.140625 C 134.289062 40.554688 130.796875 38.324219 126.746094 36.714844 C 119.480469 33.816406 112.597656 32.480469 106.253906 32.457031 C 106.195312 32.457031 106.128906 32.453125 106.050781 32.453125 C 91.683594 32.429688 80.453125 39.371094 74.390625 48.671875 C 73.828125 48.714844 73.25 48.769531 72.664062 48.839844 C 65.109375 49.820312 57.207031 52.550781 50.972656 58.425781 C 50.851562 58.519531 50.738281 58.625 50.628906 58.75 C 48.347656 59.207031 46.214844 59.964844 44.269531 61.160156 C 40.328125 63.519531 37.949219 67.867188 37.980469 72.402344 C 37.980469 72.402344 37.976562 72.46875 37.980469 72.617188 C 37.984375 73.257812 38.03125 73.890625 38.105469 74.515625 C 37.933594 74.722656 37.761719 74.929688 37.589844 75.144531 C 34.84375 78.699219 33.167969 82.605469 32.65625 86.476562 C 32.535156 87.460938 32.464844 88.5 32.464844 89.617188 C 32.464844 93.058594 33.125 97.535156 35.808594 101.847656 C 36.28125 102.617188 36.820312 103.367188 37.414062 104.082031 C 37.234375 104.855469 37.144531 105.648438 37.132812 106.4375 C 37.125 106.488281 37.125 106.667969 37.144531 106.902344 C 37.3125 111.703125 40.175781 115.917969 44.453125 118.214844 C 44.703125 118.855469 44.988281 119.480469 45.296875 120.085938 C 39.378906 126.464844 37.554688 134.292969 37.5625 140.199219 L 37.566406 140.199219 C 37.566406 140.238281 37.566406 140.292969 37.566406 140.355469 C 37.597656 141.535156 37.660156 142.671875 37.789062 143.765625 C 35.539062 145.429688 33.785156 147.785156 32.867188 150.601562 C 32.375 152.082031 32.125 153.632812 32.125 155.175781 C 32.136719 158.058594 32.972656 160.898438 34.578125 163.308594 C 34.335938 164.386719 34.21875 165.46875 34.21875 166.535156 C 34.214844 171.414062 36.691406 176.238281 41.132812 178.921875 C 43.429688 180.414062 45.828125 181.792969 48.316406 183.074219 C 55.722656 200.648438 77.644531 219.898438 122.472656 219.902344 C 122.621094 219.902344 122.765625 219.902344 122.914062 219.898438 L 123.160156 219.898438 C 130.417969 219.898438 138.265625 219.421875 146.789062 218.394531 C 159.476562 216.832031 179.625 212.476562 197.308594 201.742188 C 214.835938 191.21875 230.140625 173.296875 230.257812 146.601562 L 230.265625 146.578125 L 230.265625 146.0625 Z M 230.257812 146.023438 "/>
<path style=" stroke:none;fill-rule:nonzero;fill:rgb(100%,100%,100%);fill-opacity:1;" d="M 91.050781 103.207031 C 91.394531 100.695312 92.207031 95.484375 95.792969 90.617188 C 96.125 90.15625 96.515625 89.714844 96.898438 89.269531 C 96.941406 88.582031 96.796875 87.980469 96.28125 87.460938 C 82.242188 77.8125 61.390625 74.703125 51.960938 75.617188 C 45.535156 76.257812 41.558594 83.269531 41.039062 87.515625 C 40.476562 92.121094 41.417969 100.878906 51.9375 103.582031 C 64.417969 106.792969 86.65625 108.1875 89.804688 105.035156 C 90.269531 104.574219 90.660156 104.144531 91.015625 103.730469 C 91.035156 103.558594 91.027344 103.375 91.050781 103.207031 Z M 91.050781 103.207031 "/>
<path style=" stroke:none;fill-rule:nonzero;fill:rgb(12.941177%,12.941177%,12.941177%);fill-opacity:1;" d="M 82.472656 92.1875 C 82.472656 97.585938 77.960938 101.957031 72.390625 101.957031 C 66.824219 101.957031 62.3125 97.585938 62.3125 92.1875 C 62.3125 86.792969 66.824219 82.414062 72.390625 82.414062 C 77.960938 82.414062 82.472656 86.792969 82.472656 92.1875 "/>
<path style=" stroke:none;fill-rule:nonzero;fill:rgb(100%,100%,100%);fill-opacity:1;" d="M 78.640625 89.921875 C 78.640625 91.636719 77.242188 93.035156 75.523438 93.035156 C 73.800781 93.035156 72.40625 91.636719 72.40625 89.921875 C 72.40625 88.195312 73.800781 86.800781 75.523438 86.800781 C 77.242188 86.800781 78.640625 88.195312 78.640625 89.921875 "/>
<path style=" stroke:none;fill-rule:nonzero;fill:rgb(100%,100%,100%);fill-opacity:1;" d="M 172.59375 110.445312 C 172.59375 106.539062 166.230469 106.320312 162.132812 104.273438 C 155.328125 100.875 143.710938 87.886719 118.535156 86.128906 C 98.625 84.734375 95.96875 99.027344 95.347656 103.769531 C 94.46875 110.445312 98.5 121.914062 124.582031 123.425781 C 144.492188 124.585938 156.214844 115.105469 162.636719 113.851562 C 169.066406 112.589844 172.59375 113.09375 172.59375 110.445312 "/>
<path style=" stroke:none;fill-rule:nonzero;fill:rgb(12.941177%,12.941177%,12.941177%);fill-opacity:1;" d="M 143.964844 106.421875 C 143.964844 113.03125 138.433594 118.398438 131.613281 118.398438 C 124.796875 118.398438 119.265625 113.03125 119.265625 106.421875 C 119.265625 99.8125 124.796875 94.453125 131.613281 94.453125 C 138.433594 94.453125 143.964844 99.8125 143.964844 106.421875 "/>
<path style=" stroke:none;fill-rule:nonzero;fill:rgb(100%,100%,100%);fill-opacity:1;" d="M 138.804688 103.738281 C 138.804688 105.699219 137.214844 107.292969 135.257812 107.292969 C 133.289062 107.292969 131.699219 105.699219 131.699219 103.738281 C 131.699219 101.773438 133.289062 100.183594 135.257812 100.183594 C 137.214844 100.183594 138.804688 101.773438 138.804688 103.738281 "/>
<path style=" stroke:none;fill-rule:nonzero;fill:rgb(14.901961%,60.784316%,30.19608%);fill-opacity:1;" d="M 51.519531 71.308594 C 52.746094 71.179688 54.058594 71.132812 55.464844 71.132812 C 66.441406 71.191406 83.980469 74.445312 97.515625 83.148438 C 97.789062 82.589844 98.070312 82.035156 98.390625 81.523438 C 98.640625 81.144531 98.921875 80.800781 99.195312 80.441406 C 89.398438 70.957031 77.90625 68.039062 62.601562 66.539062 C 60.875 66.359375 59.296875 66.277344 57.851562 66.277344 C 49.148438 66.46875 46.460938 68.78125 46.425781 72.546875 C 46.425781 72.628906 46.460938 72.742188 46.460938 72.828125 C 47.96875 72.050781 49.652344 71.496094 51.519531 71.308594 Z M 194.597656 89.148438 C 194.109375 95.464844 192.8125 97.820312 192.410156 97.777344 C 192.003906 97.734375 191.785156 96.027344 191.429688 92.984375 C 191.0625 89.949219 190.574219 85.566406 189.359375 80.347656 C 188.125 75.167969 186.125 69.058594 182.226562 63.546875 C 180.246094 60.84375 177.804688 58.320312 174.804688 56.375 C 174.03125 55.925781 173.292969 55.410156 172.460938 55.035156 L 171.238281 54.425781 L 169.957031 53.90625 C 169.132812 53.535156 168.140625 53.269531 167.203125 52.960938 C 166.25 52.679688 165.320312 52.296875 164.339844 52.082031 C 160.796875 51.117188 157.183594 50.546875 153.582031 50.324219 C 149.984375 50.21875 146.402344 50.546875 143 51.464844 C 137.738281 52.820312 132.964844 55.777344 129.5625 59.851562 C 130.949219 59.617188 132.34375 59.65625 133.707031 59.558594 C 134.40625 59.53125 135.097656 59.464844 135.792969 59.484375 C 136.472656 59.527344 137.148438 59.570312 137.820312 59.609375 C 139.167969 59.714844 140.5 59.738281 141.773438 59.925781 C 143.042969 60.140625 144.285156 60.347656 145.496094 60.554688 C 146.105469 60.660156 146.707031 60.769531 147.292969 60.875 C 147.875 61.003906 148.4375 61.179688 148.996094 61.328125 C 150.109375 61.636719 151.191406 61.9375 152.242188 62.234375 C 154.347656 62.757812 156.1875 63.601562 157.902344 64.25 C 161.355469 65.511719 163.917969 67.011719 165.699219 68.019531 C 167.460938 69.050781 168.371094 69.746094 168.242188 70.027344 C 168.109375 70.3125 166.964844 70.144531 165.015625 69.617188 C 163.054688 69.113281 160.351562 68.078125 156.890625 67.242188 C 150.113281 65.355469 140.429688 63.105469 130.011719 64.292969 C 125.253906 64.800781 120.679688 66.371094 116.679688 68.773438 C 115.699219 69.402344 114.757812 70.082031 113.824219 70.773438 L 112.570312 71.90625 C 117.074219 70.613281 121.769531 70.28125 126.332031 70.519531 C 132.652344 70.964844 138.46875 72.4375 143.511719 74.277344 C 148.570312 76.089844 152.902344 78.222656 156.414062 80.195312 C 163.433594 84.144531 167.285156 87.300781 167.015625 87.746094 C 166.683594 88.292969 162.285156 86.027344 155.097656 82.855469 C 151.5 81.261719 147.179688 79.480469 142.277344 77.941406 C 137.382812 76.382812 131.875 75.121094 126.074219 74.710938 C 120.785156 74.425781 115.410156 74.957031 110.664062 76.976562 C 108.308594 77.980469 106.085938 79.316406 104.277344 81.019531 C 103.347656 81.855469 102.570312 82.8125 101.917969 83.796875 C 101.507812 84.417969 101.210938 85.078125 100.992188 85.703125 C 104.703125 83.261719 109.667969 81.640625 115.886719 81.695312 C 116.84375 81.695312 117.824219 81.726562 118.835938 81.804688 C 132.117188 82.722656 142.035156 86.671875 149.351562 90.808594 C 156.589844 94.914062 161.605469 99.246094 164.070312 100.394531 C 166.148438 101.660156 170.4375 101.699219 174.449219 104.914062 C 175.816406 106.066406 176.984375 108.25 176.925781 110.445312 C 177.027344 112.035156 176.089844 114.261719 174.648438 115.296875 C 173.257812 116.367188 172.035156 116.640625 170.9375 116.90625 C 168.730469 117.355469 166.449219 117.507812 163.460938 118.101562 C 161.738281 118.339844 157.230469 120.742188 151.324219 123.148438 C 145.359375 125.542969 137.585938 127.855469 127.96875 127.855469 C 127.960938 127.855469 127.949219 127.855469 127.9375 127.855469 C 126.765625 127.855469 125.566406 127.824219 124.328125 127.75 C 111.769531 127.007812 103.519531 124.078125 98.183594 119.808594 C 95.691406 117.839844 93.960938 115.558594 92.800781 113.242188 C 92.519531 114.566406 92.46875 115.996094 92.6875 117.390625 C 93.058594 119.964844 94.121094 122.488281 95.699219 124.671875 C 97.28125 126.851562 99.359375 128.703125 101.710938 130.152344 C 102.269531 130.558594 102.925781 130.832031 103.527344 131.175781 L 104.449219 131.671875 L 105.445312 132.113281 L 107.433594 132.984375 C 108.105469 133.265625 108.800781 133.488281 109.464844 133.746094 C 110.9375 134.328125 112.445312 134.699219 113.90625 135.164062 C 115.40625 135.488281 116.855469 135.90625 118.328125 136.09375 C 121.242188 136.632812 124.105469 136.785156 126.832031 136.796875 C 132.304688 136.75 137.246094 135.902344 141.355469 134.925781 C 149.5625 132.894531 154.582031 130.945312 154.847656 131.582031 C 155.074219 132.070312 150.542969 135.046875 142.226562 137.964844 C 138.0625 139.371094 132.871094 140.625 126.9375 140.910156 C 123.980469 141.023438 120.835938 140.941406 117.636719 140.425781 C 116.023438 140.234375 114.425781 139.8125 112.792969 139.46875 C 111.195312 138.988281 109.539062 138.582031 107.953125 137.949219 C 107.214844 137.671875 106.472656 137.417969 105.75 137.121094 L 103.605469 136.183594 L 102.527344 135.710938 L 101.457031 135.136719 C 100.75 134.734375 100.003906 134.421875 99.335938 133.941406 C 96.566406 132.230469 94.046875 129.996094 92.089844 127.296875 C 90.121094 124.597656 88.753906 121.414062 88.261719 118.015625 C 87.996094 116.328125 88.015625 114.574219 88.304688 112.828125 C 88.433594 111.921875 88.695312 111.015625 89.054688 110.128906 C 88.269531 110.339844 87.46875 110.492188 86.605469 110.664062 C 84.386719 111.003906 81.824219 111.132812 78.984375 111.136719 C 70.234375 111.125 58.953125 109.851562 50.859375 107.777344 C 49.15625 107.363281 47.660156 106.777344 46.300781 106.085938 C 45.207031 107.65625 46.554688 110.503906 48.855469 111.644531 C 49.640625 112.035156 50.53125 112.191406 51.308594 112.59375 C 51.964844 112.9375 51.84375 113.203125 52.234375 114.53125 C 52.519531 115.472656 52.910156 116.417969 53.359375 117.304688 C 53.621094 117.808594 53.910156 118.300781 54.261719 118.75 C 54.878906 119.546875 55.503906 120.320312 56.28125 120.960938 C 57.367188 121.832031 58.605469 122.5 59.828125 123.148438 C 61.097656 123.828125 62.40625 124.453125 63.742188 124.988281 C 64.503906 125.28125 65.277344 125.550781 66.0625 125.773438 C 67.269531 126.121094 68.507812 126.375 69.753906 126.527344 C 71.675781 126.769531 73.613281 126.804688 75.542969 126.804688 C 76.859375 126.800781 78.199219 126.746094 79.511719 126.859375 C 80.050781 126.898438 80.601562 126.972656 81.074219 127.253906 C 81.089844 127.257812 81.179688 127.304688 81.179688 127.3125 C 82.082031 127.503906 67.816406 134.675781 53.402344 123.949219 C 47.730469 128.734375 46.027344 135.28125 46.011719 140.25 C 45.992188 141.089844 46.050781 141.882812 46.144531 142.609375 C 48.394531 142.667969 50.671875 143.339844 52.691406 144.6875 C 64.363281 152.628906 84.867188 157.695312 105.640625 157.648438 C 105.738281 157.648438 105.839844 157.648438 105.941406 157.648438 C 106.035156 157.648438 106.0625 157.648438 106.066406 157.648438 C 120.898438 157.648438 135.953125 155.242188 148.222656 150.695312 C 155.453125 148.039062 162.585938 144.53125 167.824219 139.773438 C 169.898438 137.90625 172.007812 135.644531 174.804688 133.550781 C 177.574219 131.464844 181.238281 129.644531 185.679688 129.277344 C 186.246094 129.21875 186.800781 129.199219 187.339844 129.199219 C 191.605469 129.175781 195.496094 130.777344 198.277344 133.332031 C 201.078125 135.878906 202.832031 139.234375 203.628906 142.78125 L 203.628906 142.785156 C 203.914062 144.066406 204.03125 145.34375 204.03125 146.609375 C 204.03125 146.832031 204.011719 147.054688 204.003906 147.269531 C 204.023438 147.605469 204.03125 147.941406 204.03125 148.269531 C 204.003906 152.273438 202.914062 156.085938 200.84375 159.28125 C 191.835938 172.886719 177.445312 181.75 161.480469 187.507812 C 145.421875 193.253906 127.316406 195.945312 109.410156 195.960938 C 92.546875 195.902344 75.859375 193.53125 61.121094 188.425781 C 70.195312 200.320312 88.726562 211.652344 123.410156 211.707031 C 130.304688 211.707031 137.835938 211.25 146.0625 210.257812 C 157.925781 208.824219 177.199219 204.5625 193.296875 194.742188 C 209.414062 184.863281 222.285156 169.765625 222.316406 146.054688 C 222.289062 101.1875 201.863281 90.480469 194.597656 89.148438 Z M 101.628906 77.769531 C 102.429688 77.042969 103.28125 76.386719 104.164062 75.78125 C 104.25 75.601562 104.304688 75.398438 104.402344 75.226562 C 104.757812 74.621094 105.035156 73.929688 105.464844 73.386719 L 106.675781 71.671875 C 107.105469 71.140625 107.578125 70.640625 108.03125 70.121094 L 108.726562 69.355469 L 109.484375 68.671875 L 111.011719 67.300781 C 112.097656 66.492188 113.199219 65.691406 114.339844 64.960938 C 116.558594 63.625 118.917969 62.546875 121.351562 61.703125 C 121.773438 60.832031 122.285156 59.902344 122.441406 59.644531 C 124.417969 56.375 127.035156 53.507812 130.070312 51.226562 C 130.832031 50.652344 131.628906 50.121094 132.441406 49.621094 C 130.046875 47.476562 127.269531 45.648438 123.972656 44.328125 C 117.484375 41.746094 111.589844 40.652344 106.347656 40.652344 C 94.691406 40.660156 86.214844 46.042969 81.589844 52.988281 C 95.921875 55.359375 99.164062 58.964844 98.945312 59.472656 C 98.683594 60.09375 95.835938 59.386719 91.316406 58.5625 C 86.808594 57.777344 80.53125 57.003906 73.757812 57.8125 C 68.871094 58.429688 64.070312 60.042969 60.117188 62.714844 C 61.03125 62.761719 61.976562 62.828125 62.964844 62.921875 C 78.410156 64.417969 91.039062 67.53125 101.628906 77.769531 Z M 101.628906 77.769531 "/>
<path style=" stroke:none;fill-rule:nonzero;fill:rgb(75.294119%,47.843137%,30.588236%);fill-opacity:1;" d="M 198.570312 143.910156 C 197.320312 138.3125 192.898438 133.847656 186.148438 134.433594 C 179.40625 135.03125 175.824219 139.523438 171.304688 143.617188 C 165.289062 149.058594 157.566406 152.773438 150.023438 155.558594 C 137.007812 160.367188 121.398438 162.839844 105.980469 162.832031 C 84.269531 162.886719 62.925781 157.828125 49.792969 148.984375 C 46.460938 146.757812 41.953125 147.664062 39.730469 150.996094 C 38.148438 153.367188 38.175781 156.320312 39.507812 158.636719 C 52.902344 167.394531 78.832031 175.429688 106.769531 175.40625 C 133.59375 175.40625 162.210938 168.105469 183.996094 147.582031 C 184.832031 146.796875 186.140625 146.835938 186.929688 147.664062 C 187.714844 148.503906 187.671875 149.8125 186.835938 150.605469 C 164.046875 172.054688 134.316406 179.546875 106.78125 179.546875 C 106.78125 179.546875 106.773438 179.546875 106.769531 179.546875 C 80.363281 179.527344 55.992188 172.726562 41.019531 164.367188 C 39.925781 167.445312 41 170.976562 43.847656 172.84375 C 60.902344 184 84.953125 189.054688 109.421875 189.117188 C 126.796875 189.105469 144.363281 186.472656 159.730469 180.976562 C 175.050781 175.449219 188.398438 167.074219 196.511719 154.769531 C 198.394531 151.921875 199.371094 147.519531 198.570312 143.910156 Z M 198.570312 143.910156 "/>
</g>
</svg>
