<?xml version="1.0" encoding="UTF-8"?>
<svg xmlns="http://www.w3.org/2000/svg" xmlns:xlink="http://www.w3.org/1999/xlink" width="128px" height="128px" viewBox="0 0 128 128" version="1.1">
<g id="surface1">
<path style=" stroke:none;fill-rule:nonzero;fill:rgb(12.54902%,50.980395%,25.490198%);fill-opacity:1;" d="M 127.890625 63.945312 C 127.890625 28.628906 99.261719 0 63.945312 0 C 28.628906 0 0 28.628906 0 63.945312 C 0 99.257812 28.628906 127.890625 63.945312 127.890625 C 99.261719 127.890625 127.890625 99.257812 127.890625 63.945312 Z M 127.890625 63.945312 "/>
<path style=" stroke:none;fill-rule:nonzero;fill:rgb(14.901961%,60.784316%,30.19608%);fill-opacity:1;" d="M 122.765625 63.945312 C 122.765625 31.460938 96.429688 5.125 63.945312 5.125 C 31.457031 5.125 5.125 31.460938 5.125 63.945312 C 5.125 96.429688 31.457031 122.765625 63.945312 122.765625 C 96.429688 122.765625 122.765625 96.429688 122.765625 63.945312 Z M 122.765625 63.945312 "/>
<path style=" stroke:none;fill-rule:nonzero;fill:rgb(8.627451%,32.549021%,16.470589%);fill-opacity:1;" d="M 3.996094 63.945312 C 3.996094 30.832031 30.835938 3.992188 63.945312 3.992188 C 97.054688 3.992188 123.894531 30.832031 123.894531 63.945312 C 123.894531 97.054688 97.054688 123.890625 63.945312 123.894531 C 30.835938 123.890625 3.996094 97.054688 3.996094 63.945312 Z M 22.992188 22.992188 C 12.511719 33.472656 6.035156 47.945312 6.03125 63.945312 C 6.035156 79.9375 12.511719 94.40625 22.992188 104.898438 C 33.476562 115.375 47.949219 121.855469 63.945312 121.855469 C 79.941406 121.855469 94.410156 115.375 104.894531 104.898438 C 115.378906 94.40625 121.855469 79.9375 121.855469 63.945312 C 121.855469 47.949219 115.378906 33.472656 104.894531 22.992188 C 94.410156 12.511719 79.941406 6.03125 63.945312 6.03125 C 47.949219 6.03125 33.476562 12.511719 22.992188 22.992188 Z M 22.992188 22.992188 "/>
<path style=" stroke:none;fill-rule:nonzero;fill:rgb(12.941177%,12.941177%,12.941177%);fill-opacity:1;" d="M 115.128906 73.011719 C 115.132812 60.300781 111.964844 52.144531 107.972656 47.15625 L 107.964844 47.148438 C 105.066406 43.558594 101.890625 41.667969 99.261719 40.871094 C 99.035156 39.652344 98.71875 38.316406 98.289062 36.917969 C 96.695312 31.714844 93.308594 25.328125 86.144531 22.4375 C 82.503906 20.988281 79.058594 20.316406 75.882812 20.308594 C 75.859375 20.308594 75.832031 20.304688 75.804688 20.304688 C 73.191406 20.304688 70.777344 20.761719 68.625 21.570312 C 67.144531 20.277344 65.398438 19.164062 63.371094 18.355469 C 59.742188 16.910156 56.300781 16.242188 53.125 16.226562 C 53.097656 16.226562 53.0625 16.226562 53.027344 16.226562 C 45.84375 16.214844 40.226562 19.6875 37.195312 24.335938 C 36.914062 24.359375 36.625 24.382812 36.332031 24.421875 C 32.554688 24.910156 28.605469 26.273438 25.484375 29.210938 C 25.425781 29.257812 25.371094 29.3125 25.316406 29.375 C 24.171875 29.605469 23.105469 29.980469 22.136719 30.582031 C 20.164062 31.761719 18.976562 33.933594 18.992188 36.199219 C 18.992188 36.199219 18.988281 36.234375 18.992188 36.308594 C 18.992188 36.628906 19.015625 36.945312 19.054688 37.257812 C 18.964844 37.363281 18.878906 37.464844 18.796875 37.570312 C 17.421875 39.347656 16.585938 41.300781 16.328125 43.238281 C 16.269531 43.730469 16.234375 44.25 16.234375 44.808594 C 16.234375 46.527344 16.5625 48.765625 17.902344 50.925781 C 18.140625 51.308594 18.410156 51.683594 18.707031 52.042969 C 18.617188 52.429688 18.570312 52.824219 18.566406 53.21875 C 18.5625 53.246094 18.5625 53.332031 18.574219 53.449219 C 18.65625 55.851562 20.085938 57.960938 22.226562 59.105469 C 22.351562 59.429688 22.492188 59.738281 22.648438 60.042969 C 19.691406 63.230469 18.777344 67.148438 18.78125 70.097656 L 18.785156 70.097656 C 18.785156 70.117188 18.785156 70.144531 18.785156 70.175781 C 18.796875 70.769531 18.832031 71.335938 18.894531 71.882812 C 17.769531 72.714844 16.894531 73.894531 16.433594 75.300781 C 16.1875 76.039062 16.0625 76.816406 16.0625 77.589844 C 16.066406 79.03125 16.488281 80.449219 17.289062 81.652344 C 17.167969 82.195312 17.109375 82.734375 17.109375 83.265625 C 17.109375 85.707031 18.347656 88.121094 20.566406 89.460938 C 21.714844 90.207031 22.914062 90.898438 24.160156 91.539062 C 27.859375 100.324219 38.820312 109.949219 61.234375 109.953125 C 61.3125 109.953125 61.382812 109.953125 61.457031 109.949219 L 61.578125 109.949219 C 65.207031 109.949219 69.132812 109.710938 73.394531 109.199219 C 79.738281 108.414062 89.8125 106.238281 98.65625 100.871094 C 107.417969 95.609375 115.070312 86.648438 115.128906 73.300781 L 115.132812 73.289062 L 115.132812 73.03125 Z M 115.128906 73.011719 "/>
<path style=" stroke:none;fill-rule:nonzero;fill:rgb(100%,100%,100%);fill-opacity:1;" d="M 45.523438 51.601562 C 45.695312 50.347656 46.101562 47.742188 47.898438 45.308594 C 48.0625 45.078125 48.257812 44.859375 48.449219 44.632812 C 48.472656 44.289062 48.398438 43.988281 48.140625 43.730469 C 41.121094 38.90625 30.695312 37.351562 25.980469 37.808594 C 22.769531 38.128906 20.78125 41.636719 20.519531 43.757812 C 20.238281 46.0625 20.710938 50.4375 25.96875 51.792969 C 32.207031 53.398438 43.328125 54.09375 44.902344 52.515625 C 45.132812 52.285156 45.328125 52.074219 45.507812 51.863281 C 45.515625 51.78125 45.515625 51.6875 45.523438 51.601562 Z M 45.523438 51.601562 "/>
<path style=" stroke:none;fill-rule:nonzero;fill:rgb(12.941177%,12.941177%,12.941177%);fill-opacity:1;" d="M 41.238281 46.09375 C 41.238281 48.792969 38.980469 50.976562 36.195312 50.976562 C 33.414062 50.976562 31.15625 48.792969 31.15625 46.09375 C 31.15625 43.394531 33.414062 41.207031 36.195312 41.207031 C 38.980469 41.207031 41.238281 43.394531 41.238281 46.09375 "/>
<path style=" stroke:none;fill-rule:nonzero;fill:rgb(100%,100%,100%);fill-opacity:1;" d="M 39.320312 44.960938 C 39.320312 45.820312 38.621094 46.515625 37.761719 46.515625 C 36.902344 46.515625 36.203125 45.820312 36.203125 44.960938 C 36.203125 44.097656 36.902344 43.402344 37.761719 43.402344 C 38.621094 43.402344 39.320312 44.097656 39.320312 44.960938 "/>
<path style=" stroke:none;fill-rule:nonzero;fill:rgb(100%,100%,100%);fill-opacity:1;" d="M 86.296875 55.222656 C 86.296875 53.269531 83.117188 53.160156 81.066406 52.136719 C 77.664062 50.4375 71.855469 43.945312 59.269531 43.066406 C 49.3125 42.367188 47.984375 49.511719 47.671875 51.886719 C 47.234375 55.222656 49.25 60.957031 62.292969 61.710938 C 72.246094 62.292969 78.105469 57.554688 81.320312 56.925781 C 84.535156 56.296875 86.296875 56.546875 86.296875 55.222656 "/>
<path style=" stroke:none;fill-rule:nonzero;fill:rgb(12.941177%,12.941177%,12.941177%);fill-opacity:1;" d="M 71.984375 53.210938 C 71.984375 56.515625 69.214844 59.199219 65.808594 59.199219 C 62.398438 59.199219 59.632812 56.515625 59.632812 53.210938 C 59.632812 49.90625 62.398438 47.226562 65.808594 47.226562 C 69.214844 47.226562 71.984375 49.90625 71.984375 53.210938 "/>
<path style=" stroke:none;fill-rule:nonzero;fill:rgb(100%,100%,100%);fill-opacity:1;" d="M 69.402344 51.867188 C 69.402344 52.847656 68.609375 53.644531 67.628906 53.644531 C 66.644531 53.644531 65.847656 52.847656 65.847656 51.867188 C 65.847656 50.886719 66.644531 50.089844 67.628906 50.089844 C 68.609375 50.089844 69.402344 50.886719 69.402344 51.867188 "/>
<path style=" stroke:none;fill-rule:nonzero;fill:rgb(14.901961%,60.784316%,30.19608%);fill-opacity:1;" d="M 25.757812 35.652344 C 26.371094 35.589844 27.03125 35.566406 27.730469 35.566406 C 33.222656 35.597656 41.988281 37.222656 48.757812 41.574219 C 48.894531 41.296875 49.035156 41.019531 49.195312 40.761719 C 49.320312 40.574219 49.460938 40.398438 49.597656 40.222656 C 44.699219 35.476562 38.953125 34.019531 31.300781 33.269531 C 30.4375 33.179688 29.648438 33.140625 28.925781 33.140625 C 24.574219 33.234375 23.230469 34.390625 23.214844 36.273438 C 23.214844 36.3125 23.230469 36.371094 23.230469 36.414062 C 23.984375 36.023438 24.824219 35.746094 25.757812 35.652344 Z M 97.296875 44.574219 C 97.054688 47.730469 96.40625 48.910156 96.207031 48.886719 C 96.003906 48.867188 95.890625 48.011719 95.714844 46.492188 C 95.53125 44.976562 95.289062 42.78125 94.679688 40.171875 C 94.0625 37.585938 93.0625 34.53125 91.113281 31.773438 C 90.121094 30.421875 88.902344 29.160156 87.402344 28.1875 C 87.015625 27.960938 86.648438 27.707031 86.230469 27.515625 L 85.621094 27.210938 L 84.976562 26.953125 C 84.566406 26.765625 84.070312 26.636719 83.601562 26.480469 C 83.125 26.339844 82.660156 26.148438 82.167969 26.039062 C 80.398438 25.558594 78.589844 25.273438 76.792969 25.164062 C 74.992188 25.109375 73.199219 25.273438 71.5 25.734375 C 68.867188 26.410156 66.484375 27.886719 64.78125 29.925781 C 65.476562 29.808594 66.171875 29.828125 66.851562 29.78125 C 67.203125 29.765625 67.550781 29.734375 67.894531 29.742188 C 68.238281 29.765625 68.574219 29.785156 68.910156 29.804688 C 69.582031 29.859375 70.25 29.871094 70.886719 29.960938 C 71.523438 30.070312 72.144531 30.175781 72.75 30.277344 C 73.050781 30.332031 73.351562 30.386719 73.644531 30.4375 C 73.9375 30.503906 74.21875 30.589844 74.5 30.664062 C 75.054688 30.816406 75.597656 30.96875 76.121094 31.117188 C 77.175781 31.378906 78.09375 31.800781 78.949219 32.125 C 80.679688 32.753906 81.957031 33.503906 82.851562 34.007812 C 83.730469 34.523438 84.183594 34.875 84.121094 35.015625 C 84.054688 35.15625 83.480469 35.070312 82.507812 34.808594 C 81.527344 34.558594 80.175781 34.039062 78.445312 33.621094 C 75.054688 32.679688 70.214844 31.550781 65.007812 32.148438 C 62.625 32.402344 60.339844 33.183594 58.339844 34.386719 C 57.847656 34.699219 57.378906 35.042969 56.914062 35.386719 L 56.285156 35.953125 C 58.535156 35.304688 60.886719 35.140625 63.164062 35.261719 C 66.324219 35.480469 69.234375 36.21875 71.757812 37.140625 C 74.285156 38.042969 76.449219 39.113281 78.207031 40.097656 C 81.71875 42.070312 83.644531 43.648438 83.507812 43.871094 C 83.34375 44.144531 81.140625 43.015625 77.550781 41.429688 C 75.75 40.632812 73.589844 39.742188 71.136719 38.972656 C 68.691406 38.191406 65.9375 37.5625 63.035156 37.355469 C 60.390625 37.210938 57.707031 37.476562 55.332031 38.488281 C 54.15625 38.988281 53.042969 39.660156 52.140625 40.511719 C 51.675781 40.925781 51.285156 41.40625 50.960938 41.898438 C 50.753906 42.210938 50.605469 42.539062 50.496094 42.851562 C 52.351562 41.628906 54.832031 40.820312 57.941406 40.847656 C 58.421875 40.847656 58.914062 40.863281 59.417969 40.902344 C 66.058594 41.359375 71.015625 43.335938 74.675781 45.40625 C 78.296875 47.457031 80.800781 49.621094 82.035156 50.199219 C 83.074219 50.832031 85.21875 50.851562 87.226562 52.457031 C 87.90625 53.03125 88.492188 54.125 88.464844 55.222656 C 88.511719 56.019531 88.042969 57.128906 87.324219 57.648438 C 86.628906 58.183594 86.019531 58.320312 85.46875 58.453125 C 84.367188 58.679688 83.226562 58.753906 81.730469 59.050781 C 80.867188 59.167969 78.613281 60.371094 75.664062 61.574219 C 72.679688 62.773438 68.792969 63.925781 63.984375 63.925781 C 63.980469 63.925781 63.976562 63.925781 63.96875 63.925781 C 63.382812 63.925781 62.785156 63.910156 62.164062 63.875 C 55.882812 63.503906 51.761719 62.039062 49.089844 59.902344 C 47.84375 58.917969 46.980469 57.78125 46.398438 56.621094 C 46.257812 57.28125 46.234375 57.996094 46.34375 58.695312 C 46.527344 59.984375 47.058594 61.242188 47.851562 62.335938 C 48.640625 63.425781 49.679688 64.351562 50.855469 65.074219 C 51.132812 65.28125 51.464844 65.417969 51.765625 65.589844 L 52.222656 65.835938 L 52.722656 66.054688 L 53.714844 66.492188 C 54.054688 66.632812 54.398438 66.746094 54.730469 66.871094 C 55.46875 67.164062 56.222656 67.347656 56.953125 67.582031 C 57.703125 67.742188 58.429688 67.953125 59.164062 68.046875 C 60.621094 68.316406 62.054688 68.394531 63.417969 68.398438 C 66.152344 68.375 68.621094 67.949219 70.679688 67.460938 C 74.78125 66.445312 77.289062 65.472656 77.425781 65.789062 C 77.539062 66.035156 75.273438 67.523438 71.113281 68.984375 C 69.03125 69.6875 66.4375 70.3125 63.46875 70.457031 C 61.988281 70.511719 60.417969 70.472656 58.820312 70.214844 C 58.011719 70.117188 57.214844 69.90625 56.394531 69.734375 C 55.597656 69.492188 54.769531 69.292969 53.976562 68.972656 C 53.609375 68.835938 53.234375 68.710938 52.875 68.5625 L 51.800781 68.089844 L 51.261719 67.855469 L 50.730469 67.570312 C 50.375 67.367188 50.003906 67.210938 49.667969 66.96875 C 48.285156 66.113281 47.023438 65 46.042969 63.648438 C 45.058594 62.296875 44.378906 60.707031 44.132812 59.007812 C 44 58.164062 44.007812 57.285156 44.152344 56.414062 C 44.214844 55.960938 44.347656 55.507812 44.527344 55.0625 C 44.132812 55.171875 43.734375 55.246094 43.300781 55.332031 C 42.191406 55.5 40.910156 55.566406 39.492188 55.570312 C 35.117188 55.5625 29.476562 54.925781 25.429688 53.890625 C 24.578125 53.683594 23.828125 53.390625 23.152344 53.042969 C 22.601562 53.828125 23.277344 55.253906 24.425781 55.824219 C 24.820312 56.019531 25.265625 56.09375 25.65625 56.296875 C 25.984375 56.46875 25.921875 56.601562 26.117188 57.265625 C 26.257812 57.738281 26.453125 58.210938 26.679688 58.652344 C 26.808594 58.902344 26.957031 59.152344 27.132812 59.375 C 27.441406 59.773438 27.75 60.160156 28.140625 60.480469 C 28.683594 60.917969 29.300781 61.25 29.914062 61.574219 C 30.546875 61.914062 31.203125 62.226562 31.871094 62.496094 C 32.253906 62.640625 32.640625 62.773438 33.03125 62.886719 C 33.636719 63.0625 34.253906 63.1875 34.878906 63.261719 C 35.835938 63.386719 36.804688 63.402344 37.773438 63.402344 C 38.429688 63.402344 39.097656 63.371094 39.753906 63.429688 C 40.027344 63.449219 40.300781 63.484375 40.539062 63.625 C 40.542969 63.628906 40.589844 63.652344 40.589844 63.65625 C 41.042969 63.75 33.90625 67.339844 26.699219 61.976562 C 23.867188 64.367188 23.011719 67.640625 23.003906 70.125 C 22.996094 70.542969 23.027344 70.941406 23.074219 71.304688 C 24.195312 71.335938 25.335938 71.667969 26.34375 72.34375 C 32.179688 76.316406 42.433594 78.847656 52.820312 78.824219 C 52.867188 78.824219 52.917969 78.824219 52.972656 78.824219 C 53.015625 78.824219 53.03125 78.824219 53.03125 78.824219 C 60.449219 78.824219 67.976562 77.621094 74.113281 75.347656 C 77.726562 74.019531 81.292969 72.265625 83.910156 69.886719 C 84.949219 68.953125 86.003906 67.820312 87.402344 66.773438 C 88.785156 65.730469 90.617188 64.820312 92.839844 64.636719 C 93.121094 64.609375 93.398438 64.601562 93.667969 64.601562 C 95.804688 64.585938 97.75 65.390625 99.136719 66.664062 C 100.539062 67.941406 101.414062 69.617188 101.8125 71.390625 L 101.8125 71.394531 C 101.957031 72.03125 102.015625 72.671875 102.015625 73.304688 C 102.015625 73.417969 102.007812 73.527344 102.003906 73.636719 C 102.011719 73.800781 102.015625 73.972656 102.015625 74.136719 C 102 76.136719 101.457031 78.042969 100.421875 79.640625 C 95.917969 86.441406 88.722656 90.875 80.738281 93.753906 C 72.710938 96.625 63.660156 97.972656 54.707031 97.980469 C 46.273438 97.949219 37.929688 96.765625 30.5625 94.214844 C 35.097656 100.160156 44.363281 105.824219 61.707031 105.851562 C 65.152344 105.851562 68.917969 105.625 73.03125 105.128906 C 78.964844 104.414062 88.597656 102.28125 96.648438 97.371094 C 104.707031 92.433594 111.144531 84.882812 111.15625 73.027344 C 111.144531 50.59375 100.933594 45.242188 97.296875 44.574219 Z M 50.816406 38.886719 C 51.214844 38.519531 51.640625 38.191406 52.082031 37.890625 C 52.125 37.800781 52.152344 37.699219 52.199219 37.613281 C 52.378906 37.3125 52.515625 36.964844 52.730469 36.691406 L 53.335938 35.835938 C 53.554688 35.570312 53.789062 35.320312 54.015625 35.0625 L 54.363281 34.675781 L 54.742188 34.335938 L 55.507812 33.652344 C 56.046875 33.246094 56.601562 32.84375 57.167969 32.480469 C 58.28125 31.8125 59.460938 31.273438 60.675781 30.851562 C 60.886719 30.417969 61.140625 29.949219 61.21875 29.820312 C 62.210938 28.1875 63.515625 26.753906 65.035156 25.613281 C 65.417969 25.324219 65.816406 25.0625 66.21875 24.808594 C 65.023438 23.738281 63.632812 22.824219 61.984375 22.164062 C 58.742188 20.875 55.792969 20.324219 53.175781 20.324219 C 47.347656 20.332031 43.109375 23.023438 40.796875 26.496094 C 47.960938 27.679688 49.582031 29.480469 49.472656 29.738281 C 49.34375 30.046875 47.917969 29.695312 45.660156 29.28125 C 43.402344 28.890625 40.265625 28.5 36.878906 28.90625 C 34.433594 29.214844 32.035156 30.019531 30.058594 31.359375 C 30.515625 31.382812 30.988281 31.414062 31.480469 31.460938 C 39.207031 32.207031 45.519531 33.765625 50.816406 38.886719 Z M 50.816406 38.886719 "/>
<path style=" stroke:none;fill-rule:nonzero;fill:rgb(75.294119%,47.843137%,30.588236%);fill-opacity:1;" d="M 99.285156 71.957031 C 98.660156 69.15625 96.449219 66.921875 93.074219 67.21875 C 89.703125 67.515625 87.914062 69.761719 85.652344 71.808594 C 82.644531 74.53125 78.785156 76.386719 75.011719 77.78125 C 68.503906 80.183594 60.699219 81.421875 52.992188 81.417969 C 42.132812 81.445312 31.464844 78.914062 24.894531 74.492188 C 23.230469 73.378906 20.976562 73.832031 19.863281 75.5 C 19.074219 76.683594 19.085938 78.160156 19.753906 79.316406 C 26.453125 83.695312 39.417969 87.714844 53.386719 87.703125 C 66.796875 87.703125 81.105469 84.054688 92 73.792969 C 92.417969 73.398438 93.070312 73.417969 93.464844 73.832031 C 93.855469 74.25 93.835938 74.90625 93.417969 75.300781 C 82.023438 86.027344 67.160156 89.773438 53.390625 89.773438 C 53.390625 89.773438 53.386719 89.773438 53.386719 89.773438 C 40.183594 89.761719 27.996094 86.363281 20.511719 82.183594 C 19.964844 83.722656 20.5 85.488281 21.921875 86.421875 C 30.453125 92 42.476562 94.527344 54.710938 94.558594 C 63.398438 94.554688 72.183594 93.238281 79.867188 90.488281 C 87.527344 87.726562 94.199219 83.535156 98.253906 77.386719 C 99.195312 75.960938 99.6875 73.757812 99.285156 71.957031 Z M 99.285156 71.957031 "/>
</g>
</svg>
