/* XPM */
static char *b1ec41c22fae46519160fedd6e14fbe9oz2xHMEu9IzyChw5[] = {
/* columns rows colors chars-per-pixel */
"32 32 115 2 ",
"   c None",
".  c #1E1E1E",
"X  c #1E221F",
"o  c #1E2521",
"O  c #1F2B23",
"+  c #1F3326",
"@  c #1F3D29",
"#  c #202020",
"$  c #222A23",
"%  c #2F2D25",
"&  c #362C25",
"*  c #253327",
"=  c #203628",
"-  c #203C2A",
";  c #3B3127",
":  c #373F2C",
">  c #3C3A2B",
",  c #313331",
"<  c #453429",
"1  c #433C2C",
"2  c #563D2E",
"3  c #583E2E",
"4  c #1F422C",
"5  c #1F4C2F",
"6  c #20442D",
"7  c #2B422D",
"8  c #204A2E",
"9  c #214E30",
"0  c #205432",
"q  c #215C35",
"w  c #2D553B",
"e  c #265B38",
"r  c #2F583D",
"t  c #1A6D36",
"y  c #1B7037",
"u  c #1C7439",
"i  c #1E7F3F",
"p  c #216137",
"a  c #216539",
"s  c #216C3B",
"d  c #21743E",
"f  c #5C4130",
"g  c #624432",
"h  c #6B4A34",
"j  c #714C36",
"k  c #7B5239",
"l  c #355741",
"z  c #3A5A45",
"x  c #1E7F40",
"c  c #227B41",
"v  c #424242",
"b  c #4B4B4B",
"n  c #455F4D",
"m  c #535353",
"M  c #4B6353",
"N  c #58695E",
"B  c #5E6560",
"V  c #5F6E64",
"C  c #656565",
"Z  c #67716A",
"A  c #6C746F",
"S  c #747574",
"D  c #727874",
"F  c #7B7B7B",
"G  c #81553A",
"H  c #86593C",
"J  c #8B5B3D",
"K  c #925F3F",
"L  c #966141",
"P  c #9C6542",
"I  c #A36944",
"U  c #AC6D47",
"Y  c #AF6F48",
"T  c #B47249",
"R  c #BA754B",
"E  c #BF784C",
"W  c #1E803F",
"Q  c #1E8241",
"!  c #1F8A45",
"~  c #228544",
"^  c #218C46",
"/  c #238E48",
"(  c #209047",
")  c #23954A",
"_  c #23994C",
"`  c #828684",
"'  c gray51",
"]  c #898989",
"[  c #8B8B8B",
"{  c #8D8E8D",
"}  c #939393",
"|  c #9D9E9D",
" . c #9E9F9E",
".. c #A4A4A4",
"X. c #B4B4B4",
"o. c #B7B7B7",
"O. c #C6C6C6",
"+. c #CDCDCD",
"@. c #D7D7D7",
"#. c #DADADA",
"$. c gray86",
"%. c #E1E1E1",
"&. c #E4E4E4",
"*. c #EAEAEA",
"=. c gray94",
"-. c #F1F1F1",
";. c #F3F3F3",
":. c #F6F6F6",
">. c gray97",
",. c #F8F8F8",
"<. c #F9F9F9",
"1. c #FBFBFB",
"2. c #FDFDFD",
"3. c #FEFEFE",
"4. c white",
/* pixels */
"                        Q W i W W W i i                         ",
"                  W W u t t t t t t t t u W W                   ",
"              W i t t Q _ _ _ _ _ _ _ _ Q t t i W               ",
"            i y t ^ _ _ _ _ _ _ _ _ _ _ _ _ ^ t u i             ",
"          i t Q _ _ ~ 9 + O + q / _ _ _ _ _ _ _ x t i           ",
"        i t ^ _ _ c o q ~ ^ c 0 O 4 O O 4 s _ _ _ ! t W         ",
"      W t ^ _ a @ X 0 ) _ _ _ ) @ 0 s s q + + ) _ _ ! t i       ",
"    W y W c @ o p c c d ) _ ) 6 - q s ) _ _ 8 @ _ _ _ i u       ",
"    i t ^ o q a a p q ~ _ c 6 a ~ ) ~ s c _ _ O d _ _ _ t i     ",
"  W t ( a , { } D z a a p @ p s q 0 a ) _ _ _ q 8 _ _ _ ^ t i   ",
"  i t _ + o.4.4.[ [ @.Z = w n r p ~ ) d ~ _ _ c o p _ _ _ t i   ",
"  u Q _ O $.4.$.. S O.%.F 1.4.1.+.| l ~ _ _ _ / p @ 8 _ _ W u   ",
"Q t _ _ 9 C *.4.' S 1.[ ;.4.4.m b F :.` q / _ _ _ _ @ p _ _ t W ",
"i t _ _ d O q w n V N , 1.4.:.# v v 4.4.&.B ) _ _ _ ~ O _ _ t i ",
"i t _ _ _ 6 9 _ _ _ _ @ A ;.4...m o.;.| n e _ _ _ _ _ @ d _ t i ",
"i t _ _ _ 6 @ q c ^ _ 9 ~ e M D A M q ~ _ _ _ _ _ _ _ q q _ y i ",
"i t _ _ ^ o ) _ ~ ^ _ ) 5 s ) _ _ ^ c _ _ ^ 9 : q _ _ d 8 _ y i ",
"W t _ _ d + _ _ _ _ _ _ _ c q 0 q d _ _ c > U E k d _ c @ _ t W ",
"i t _ _ 6 f 1 p ) _ _ _ _ _ _ _ _ _ ~ 9 g R I P P q _ c @ _ t i ",
"i t _ _ % R E K f 7 0 a d d a q 8 1 h U E G j E g d _ s 6 _ t Q ",
"  u Q _ @ 3 G T E E U L J J L I R E E H g L E j 5 _ _ 9 p i u   ",
"  i t _ q j I j h h J P U T I P k h h P E U 3 9 _ _ / o ^ t W   ",
"  i t ^ _ 0 & k Y R P J G k H K U E R L f * d _ _ _ @ q ^ t i   ",
"    i t _ _ 8 o - ; 3 j k G k h g < $ 5 d _ _ _ ) 4 6 _ t i     ",
"    i u i _ ) + 9 ) c d a p a s d ^ _ _ _ _ _ d + 0 _ i u       ",
"      W t ! _ / 4 O a / _ _ _ _ _ _ _ _ ~ q + + d _ ^ t W       ",
"        i t ! _ _ d 4 X + 4 9 0 9 6 @ o + 9 c _ _ ! t i         ",
"          W t i _ _ _ ) c a p p a s c ) _ _ _ _ i t W           ",
"            i u t ^ _ _ _ _ _ _ _ _ _ _ _ _ ^ t u W             ",
"                i t t Q _ _ _ _ _ _ _ _ W t t W                 ",
"                  i i u t t t u u t t t u i i                   ",
"                        i i W W W i i i                         "
};
