/* XPM */
static char *result[] = {
/* columns rows colors chars-per-pixel */
"16 16 153 2 ",
"   c #3B3B2C",
".  c #1F452C",
"X  c #1F5031",
"o  c #20482E",
"O  c #204B2F",
"+  c #205030",
"@  c #215131",
"#  c #205331",
"$  c #205132",
"%  c #235033",
"&  c #205232",
"*  c #205432",
"=  c #205433",
"-  c #205632",
";  c #205633",
":  c #205733",
">  c #205534",
",  c #205934",
"<  c #205B35",
"1  c #2E5C36",
"2  c #31523D",
"3  c #1B753A",
"4  c #1B743B",
"5  c #1B753B",
"6  c #1B763A",
"7  c #1B763B",
"8  c #1C753A",
"9  c #1C763A",
"0  c #1C763B",
"q  c #1C793B",
"w  c #1F7A3B",
"e  c #1F7B3B",
"r  c #1C793C",
"t  c #1D793C",
"y  c #1D793D",
"u  c #1E793C",
"i  c #1C7A3C",
"p  c #1D7A3C",
"a  c #1D7A3D",
"s  c #1D7B3D",
"d  c #1E7A3C",
"f  c #1D7A3E",
"g  c #1C7B3E",
"h  c #1F7B3F",
"j  c #1D7C3D",
"k  c #1F7C3F",
"l  c #216037",
"z  c #216238",
"x  c #206538",
"c  c #216639",
"v  c #216739",
"b  c #216B3B",
"n  c #226A3B",
"m  c #216C3B",
"M  c #216E3B",
"N  c #216E3C",
"B  c #216F3C",
"V  c #226E3C",
"C  c #2B6B3B",
"Z  c #366239",
"A  c #35683B",
"S  c #21713D",
"D  c #22713D",
"F  c #22723E",
"G  c #21743E",
"H  c #23753F",
"J  c #21763F",
"K  c #21773F",
"L  c #28733E",
"P  c #43442E",
"I  c #584732",
"U  c #4B5336",
"Y  c #585437",
"T  c #644C34",
"R  c #644E35",
"E  c #6F5539",
"W  c #715037",
"Q  c #735539",
"!  c #7C5238",
"~  c #7C5339",
"^  c #325F42",
"/  c #267642",
"(  c #227840",
")  c #227940",
"_  c #227A41",
"`  c #227B41",
"'  c #227D42",
"]  c #227E42",
"[  c #227F42",
"{  c #505050",
"}  c #446750",
"|  c #477557",
" . c #547A61",
".. c #567E64",
"X. c #646464",
"o. c #65746A",
"O. c #707773",
"+. c #80553A",
"@. c #84573B",
"#. c #915E3F",
"$. c #956040",
"%. c #976140",
"&. c #976241",
"*. c #986241",
"=. c #996341",
"-. c #9D6542",
";. c #9E6642",
":. c #A26844",
">. c #1E8040",
",. c #1E8141",
"<. c #1E8241",
"1. c #1E8341",
"2. c #1F8341",
"3. c #1F8743",
"4. c #1F8843",
"5. c #1F8844",
"6. c #228043",
"7. c #228143",
"8. c #228243",
"9. c #228244",
"0. c #228344",
"q. c #228444",
"w. c #228545",
"e. c #228645",
"r. c #238645",
"t. c #238E48",
"y. c #238F48",
"u. c #239149",
"i. c #23924A",
"p. c #22934A",
"a. c #23944A",
"s. c #23954B",
"d. c #23964B",
"f. c #22974B",
"g. c #23974B",
"h. c #23974C",
"j. c #23984B",
"k. c #23994B",
"l. c #23984C",
"z. c #23994C",
"x. c #598066",
"c. c #7C817E",
"v. c #75907F",
"b. c #7E8A82",
"n. c #848C87",
"m. c #8D9F94",
"M. c #9FA7A2",
"N. c gray63",
"B. c #BEC1BF",
"V. c #DDDEDE",
"C. c gray97",
"Z. c #F9F9F9",
"A. c None",
/* pixels */
"A.A.A.A.A.f 0 p p 3 a A.A.A.A.A.",
"A.A.A.d a 5.k.z.z.k.5.t e A.A.A.",
"A.A.t 2.p.$ * & c x ` l.1.q A.A.",
"A.u k - O F f.7.o J M X z.<.w A.",
"A.a % } ^ b m < ( _ i.n [ z.t A.",
"g 5.O.Z.X.B.o.m...H s.y.. q.3.r ",
"4 k.2 v.b.c.C.N.{ V.| j.g.+ g.5 ",
"t z.N l t.D  .M.n.x./ z.z.S 6.q ",
"i z.# d.i.h.G K ] i.L E A 8.M r ",
"7 k.I Q Z J q.] C Y $.-.U w.B 9 ",
"a 4.P *.&.:.-.;.%.#.=.T r.c h j ",
"A.p e.  W ! ~ +.@.R 1 u.9., i A.",
"A.e 1.' @ ) ] 9.t.l.0.: z >.p A.",
"A.A.q <.i.v > # = ; V a.,.t A.A.",
"A.A.A.w t 3.j.z.z.j.3.i y A.A.A.",
"A.A.A.A.A.r 8 q q 6 s A.A.A.A.A."
};
